G04*
G04 #@! TF.GenerationSoftware,Altium Limited,Altium Designer,23.1.1 (15)*
G04*
G04 Layer_Physical_Order=2*
G04 Layer_Color=16711680*
%FSLAX44Y44*%
%MOMM*%
G71*
G04*
G04 #@! TF.SameCoordinates,430D58A1-7882-4284-9EA1-4C80BE078114*
G04*
G04*
G04 #@! TF.FilePolarity,Positive*
G04*
G01*
G75*
%ADD48C,1.0000*%
%ADD49C,1.3970*%
%ADD50R,1.7000X1.7000*%
%ADD51C,1.7000*%
%ADD52O,2.0000X3.0000*%
%ADD53R,2.0000X3.0000*%
%ADD54R,1.2380X1.2380*%
%ADD55C,1.2380*%
%ADD56R,1.4000X2.0000*%
%ADD57O,1.4000X2.0000*%
%ADD58O,2.0000X2.6000*%
%ADD59R,2.0000X2.6000*%
%ADD60O,1.6000X1.3000*%
%ADD61O,3.0000X1.8000*%
%ADD62R,3.0000X1.8000*%
%ADD63C,2.6000*%
%ADD64R,1.8000X3.0000*%
%ADD65O,1.8000X3.0000*%
%ADD66C,1.6510*%
%ADD67R,1.6510X1.6510*%
%ADD68R,1.8000X1.8000*%
%ADD69C,1.8000*%
%ADD70C,1.5000*%
%ADD71C,1.7780*%
%ADD72R,1.7780X1.7780*%
%ADD73O,3.8100X2.4130*%
%ADD74C,3.0000*%
%ADD75C,4.5000*%
%ADD76C,2.2500*%
%ADD77R,2.2500X2.2500*%
%ADD78C,2.5000*%
%ADD79C,1.2700*%
%ADD80C,0.5000*%
G36*
X1159510Y1229360D02*
X1140460D01*
Y1273810D01*
X1159510D01*
Y1229360D01*
D02*
G37*
G36*
X1229360Y1202690D02*
X1210310D01*
Y1248410D01*
X1229360D01*
Y1202690D01*
D02*
G37*
G36*
X1159510D02*
X1140460D01*
Y1223010D01*
X1159510D01*
Y1202690D01*
D02*
G37*
G36*
X1042670Y1228090D02*
X1052830Y1217930D01*
X1066800D01*
Y1201420D01*
X1051560D01*
X1047750Y1205230D01*
X1033780Y1219200D01*
X1023620D01*
Y1236980D01*
X1042670D01*
Y1228090D01*
D02*
G37*
G36*
X1513840Y1273810D02*
Y1200150D01*
X1468120D01*
Y1238250D01*
Y1248410D01*
X1464310Y1252220D01*
X1336040D01*
X1329690Y1245870D01*
Y1135380D01*
X1347470Y1117600D01*
X1623060D01*
X1764030Y976630D01*
Y621030D01*
X1868170D01*
Y547370D01*
X1708150D01*
Y497154D01*
X1707947Y496951D01*
X1708150Y496748D01*
Y492760D01*
X1685290Y469900D01*
X1632540D01*
X1624330Y461690D01*
Y397510D01*
Y379730D01*
X1609090Y364490D01*
X1512570D01*
X1497330Y379730D01*
Y408940D01*
X1489710Y416560D01*
X1343660D01*
X1272540Y487680D01*
X1247140D01*
X1237894Y478434D01*
Y392074D01*
X1225550Y379730D01*
X1092200D01*
X1083310Y388620D01*
Y533400D01*
X1085850Y535940D01*
X1098550D01*
X1101090Y533400D01*
Y524510D01*
X1113790Y511810D01*
X1167130D01*
Y491490D01*
X1111250D01*
X1101090Y481330D01*
Y402590D01*
X1107440Y396240D01*
X1211580D01*
X1217930Y402590D01*
Y530860D01*
X1223010Y535940D01*
X1235710D01*
X1242060Y529590D01*
Y518160D01*
X1249680Y510540D01*
X1292860D01*
X1355090Y448310D01*
X1473200D01*
X1478280Y453390D01*
X1496060D01*
X1529080Y420370D01*
Y389890D01*
X1534160Y384810D01*
X1597660D01*
X1605280Y392430D01*
Y397510D01*
Y477890D01*
X1615070Y487680D01*
X1677670D01*
X1689100Y499110D01*
Y547370D01*
X1664970D01*
Y621030D01*
X1680210D01*
Y947420D01*
X1558290Y1069340D01*
X1277620D01*
Y1083310D01*
X1111250Y1083310D01*
X1093470Y1101090D01*
Y1168400D01*
X1112520D01*
Y1108710D01*
X1120140Y1101090D01*
X1277620D01*
Y1267460D01*
X1295400Y1285240D01*
X1502410D01*
X1513840Y1273810D01*
D02*
G37*
G36*
X1198880Y1168400D02*
X1229360D01*
Y1150620D01*
X1196340D01*
X1170850Y1176110D01*
X1143000D01*
Y1193800D01*
X1173480D01*
X1198880Y1168400D01*
D02*
G37*
G36*
X1035050Y1192530D02*
X1121410D01*
X1134110Y1179830D01*
Y1170940D01*
X1137920Y1167130D01*
X1159510D01*
Y1149350D01*
X1120140D01*
Y1173480D01*
X1116330Y1177290D01*
X1005840D01*
X1003300Y1174750D01*
Y1159510D01*
X976630D01*
X976630Y1205230D01*
X1022350D01*
X1035050Y1192530D01*
D02*
G37*
G36*
X1085850Y1149350D02*
X1022350D01*
Y1169670D01*
X1085850D01*
Y1149350D01*
D02*
G37*
G36*
X1000760Y1134110D02*
X1041400D01*
Y1118870D01*
X988060D01*
X982980Y1123950D01*
Y1133034D01*
Y1151890D01*
X1000760D01*
Y1134110D01*
D02*
G37*
G36*
X1451610Y1193800D02*
X1417320D01*
X1417320Y1184910D01*
X1423670Y1178560D01*
X1722120Y1178560D01*
X1761490Y1139190D01*
Y1069340D01*
X1710690D01*
Y1097280D01*
X1675130Y1132840D01*
X1403350D01*
X1376680Y1159510D01*
Y1193800D01*
X1344930D01*
Y1236980D01*
Y1238250D01*
X1451610D01*
Y1193800D01*
D02*
G37*
G36*
X1224280Y976630D02*
X1136650D01*
X1130300Y982980D01*
Y1002030D01*
X1224280D01*
Y976630D01*
D02*
G37*
G36*
X881380Y960120D02*
X872490D01*
X868680Y956310D01*
Y941070D01*
Y924208D01*
X851550D01*
Y941070D01*
Y994410D01*
X881380D01*
Y960120D01*
D02*
G37*
G36*
X869950Y904240D02*
X852170D01*
Y924208D01*
X869950D01*
Y904240D01*
D02*
G37*
G36*
X731520Y957580D02*
X722630D01*
X718820Y953770D01*
Y937260D01*
Y915670D01*
X716280D01*
Y902970D01*
X699770D01*
Y915670D01*
Y937260D01*
Y941070D01*
X704850Y946150D01*
Y990600D01*
X731520D01*
Y957580D01*
D02*
G37*
G36*
X896620Y901700D02*
X894080Y899160D01*
X877570D01*
Y919480D01*
X896620D01*
Y901700D01*
D02*
G37*
G36*
X742950Y897890D02*
X725170D01*
Y916940D01*
X742950D01*
Y897890D01*
D02*
G37*
G36*
X1563370Y1012190D02*
Y895350D01*
X1507490D01*
Y975360D01*
X1488440Y994410D01*
X1405890D01*
Y1047750D01*
X1527810D01*
X1563370Y1012190D01*
D02*
G37*
G36*
X1041400Y958850D02*
Y741680D01*
X1013460Y713740D01*
X891540D01*
X880110Y702310D01*
Y612140D01*
X849630D01*
Y701040D01*
X836930Y713740D01*
X736600Y713740D01*
X728980Y706120D01*
Y612140D01*
X698500D01*
X698500Y717550D01*
X687070Y728980D01*
X624840Y728980D01*
Y750570D01*
X960120D01*
X971550Y762000D01*
Y822960D01*
X935990Y858520D01*
X784860D01*
X762000Y881380D01*
Y989330D01*
X797560D01*
Y913130D01*
X820419Y890270D01*
X900430Y890270D01*
X911860Y901700D01*
Y990600D01*
X1009650D01*
X1041400Y958850D01*
D02*
G37*
G36*
X1040130Y1061720D02*
X1136650Y965200D01*
X1299210Y965200D01*
X1316990Y947420D01*
Y854710D01*
X1252220D01*
Y915670D01*
X1242060Y925830D01*
X1120140D01*
X1033780Y1012190D01*
X915670Y1012190D01*
X908050Y1004570D01*
Y961390D01*
X906780Y960120D01*
X886460D01*
Y1004570D01*
X877570Y1013460D01*
X765810D01*
X756920Y1004570D01*
Y957580D01*
X736600D01*
Y1040130D01*
X758190Y1061720D01*
X1040130Y1061720D01*
D02*
G37*
G36*
X896620Y828040D02*
X854710D01*
Y845820D01*
X896620D01*
Y828040D01*
D02*
G37*
G36*
X742950Y827060D02*
X698500D01*
Y845820D01*
X742950D01*
Y827060D01*
D02*
G37*
G36*
X1388110Y969010D02*
X1510030Y847090D01*
X1562100D01*
Y796290D01*
X1483360D01*
X1346200Y933450D01*
Y988060D01*
X1277620D01*
Y1047750D01*
X1388110D01*
Y969010D01*
D02*
G37*
G36*
X646430Y781050D02*
X624840D01*
Y802640D01*
X646430D01*
Y781050D01*
D02*
G37*
G36*
X941070Y759460D02*
X897890D01*
Y777240D01*
X941070D01*
Y759460D01*
D02*
G37*
G36*
X792198D02*
X745490D01*
Y778510D01*
X792198D01*
Y759460D01*
D02*
G37*
G36*
X646430Y775970D02*
Y755650D01*
X624840D01*
Y777240D01*
X646430D01*
Y775970D01*
D02*
G37*
G36*
Y704850D02*
X624840D01*
Y725170D01*
X646430D01*
Y704850D01*
D02*
G37*
G36*
X1316990Y633730D02*
X1313180Y629920D01*
X1082040D01*
X996950Y544830D01*
X750570Y544830D01*
X734060Y561340D01*
X734060Y643890D01*
X754380D01*
Y601980D01*
X767080Y589280D01*
X876300D01*
X885190Y598170D01*
Y642620D01*
X905510D01*
Y596900D01*
X913130Y589280D01*
X957580D01*
X1060450Y692150D01*
X1244600Y692150D01*
X1252220Y699770D01*
Y736600D01*
X1316990D01*
Y633730D01*
D02*
G37*
G36*
X765810Y688990D02*
X748030D01*
Y706120D01*
X765810D01*
Y688990D01*
D02*
G37*
G36*
X914400Y688340D02*
X897255D01*
Y705470D01*
X914400D01*
Y688340D01*
D02*
G37*
G36*
X646430Y679450D02*
X624840D01*
Y699770D01*
X646430D01*
Y679450D01*
D02*
G37*
G36*
X1106170Y896620D02*
X1163320Y839470D01*
X1316990D01*
Y750570D01*
X1089660D01*
X1003300Y664210D01*
Y654050D01*
X982980D01*
Y674688D01*
X993457D01*
X1074420Y755650D01*
X1062990Y767080D01*
Y925830D01*
X1106170Y925830D01*
Y896620D01*
D02*
G37*
G36*
X646430Y654050D02*
X624840D01*
Y674370D01*
X646430D01*
Y654050D01*
D02*
G37*
G36*
X788670Y685800D02*
Y665480D01*
X784860D01*
X779780Y660400D01*
Y613410D01*
X759460D01*
Y647700D01*
X763270Y651510D01*
Y664210D01*
X768865Y669805D01*
Y688340D01*
X773430D01*
Y701040D01*
X788670D01*
Y685800D01*
D02*
G37*
G36*
X938530D02*
Y674370D01*
Y662940D01*
X930910D01*
Y656590D01*
Y612140D01*
X910590D01*
Y643890D01*
X915670Y648970D01*
Y666650D01*
X923290Y674270D01*
Y685800D01*
X923168D01*
Y701040D01*
X938530D01*
Y685800D01*
D02*
G37*
G36*
X1225550Y590550D02*
X1127760D01*
Y617220D01*
X1225550D01*
Y590550D01*
D02*
G37*
G36*
X1651059Y1280101D02*
X1855529D01*
X1856740Y1278890D01*
X1891030Y1244600D01*
Y892810D01*
X1960880Y822960D01*
Y566420D01*
X1899920D01*
Y739140D01*
X1799210Y839850D01*
Y1204850D01*
X1799590Y1205230D01*
X1786890Y1217930D01*
X1751330D01*
Y1266190D01*
X1637413D01*
X1606933Y1296670D01*
X1240790D01*
X1228090Y1283970D01*
Y1272540D01*
X1230630Y1270000D01*
X1248410D01*
X1253490Y1264920D01*
Y1183640D01*
X1245960Y1176110D01*
X1212850D01*
Y1193800D01*
X1234440D01*
X1239520Y1198880D01*
Y1253490D01*
X1238250Y1254760D01*
X1210310D01*
Y1289050D01*
X1234440Y1313180D01*
X1617980D01*
X1651059Y1280101D01*
D02*
G37*
G36*
X1163320Y562610D02*
Y539750D01*
X1167130Y535940D01*
Y519430D01*
X1136650D01*
Y534670D01*
X1140460Y538480D01*
Y547370D01*
X1137920Y549910D01*
X1085850D01*
X1076960Y541020D01*
Y430846D01*
X1076875Y430811D01*
X1076875Y430810D01*
X1076960Y430530D01*
X1076960Y429455D01*
Y379730D01*
X1085850Y370840D01*
X1234440D01*
X1244600Y381000D01*
X1243330Y382270D01*
Y439420D01*
X1266190D01*
Y369570D01*
X1247140Y350520D01*
X1071880D01*
X1055370Y367030D01*
X1055413Y367073D01*
Y557573D01*
X1066800Y568960D01*
X1156970D01*
X1163320Y562610D01*
D02*
G37*
G36*
X1283970Y548640D02*
Y538480D01*
X1290320D01*
X1292860Y535940D01*
Y516890D01*
X1259840D01*
Y537210D01*
X1261110Y538480D01*
X1266190D01*
Y542290D01*
X1263650Y544830D01*
X1214120D01*
X1210310Y541020D01*
Y410210D01*
X1208163D01*
X1207823Y409869D01*
X1207482Y410210D01*
X1195070D01*
Y416560D01*
X1195345Y416835D01*
Y533125D01*
Y548915D01*
X1205230Y558800D01*
X1273810Y558800D01*
X1283970Y548640D01*
D02*
G37*
G36*
X1550670Y594360D02*
X1562100Y582930D01*
Y501650D01*
X1506220D01*
Y538480D01*
X1516380D01*
Y584200D01*
X1516380Y685800D01*
X1550670D01*
Y594360D01*
D02*
G37*
G36*
X1588770Y737870D02*
X1606550Y720090D01*
Y534670D01*
X1628140D01*
Y502039D01*
X1626967Y501553D01*
X1626870Y501650D01*
X1569720D01*
Y698500D01*
X1563370Y704850D01*
X1516380D01*
Y737870D01*
X1588770Y737870D01*
D02*
G37*
G36*
X1962150Y415290D02*
X1910080Y363220D01*
X1662430D01*
Y457200D01*
X1663700D01*
X1889760Y455930D01*
X1899920Y466090D01*
Y541020D01*
X1962150D01*
Y415290D01*
D02*
G37*
G36*
X1390650Y547370D02*
Y500380D01*
X1397000Y494030D01*
X1457960D01*
X1468120Y483870D01*
X1565910D01*
X1577340Y472440D01*
Y436880D01*
X1592580Y421640D01*
X1592580Y401320D01*
X1539240D01*
Y421640D01*
X1555750Y438150D01*
Y459740D01*
X1553210Y462280D01*
X1456690D01*
X1446530Y472440D01*
X1363980D01*
Y543560D01*
X1343660Y563880D01*
X1196340D01*
X1187450Y554990D01*
Y447040D01*
X1150620Y410210D01*
X1107440D01*
Y435610D01*
X1153160D01*
X1173480Y455930D01*
Y566420D01*
X1187450Y580390D01*
X1357630Y580390D01*
X1390650Y547370D01*
D02*
G37*
G36*
X1004570Y412750D02*
X962660Y370840D01*
X693420D01*
Y391160D01*
X956310D01*
X984250Y419100D01*
Y518160D01*
X1004570D01*
Y412750D01*
D02*
G37*
G36*
X646430Y367030D02*
X624840D01*
Y648970D01*
X646430D01*
Y367030D01*
D02*
G37*
D48*
X920750Y662230D02*
X930350Y671830D01*
X778767Y677630D02*
Y689915D01*
X781098Y692246D01*
X779730Y673860D02*
X780490Y673100D01*
X779730Y673860D02*
Y676667D01*
X778767Y677630D02*
X779730Y676667D01*
X781098Y692246D02*
Y692890D01*
X860350Y958140D02*
X866220Y964010D01*
Y970360D02*
X871220Y975360D01*
X866220Y964010D02*
Y970360D01*
X860350Y916236D02*
Y958140D01*
X1023620Y1193800D02*
X1032060Y1185360D01*
X1032510Y1228800D02*
X1049734Y1211576D01*
X1032060Y1185360D02*
X1059180D01*
X1049734Y1211576D02*
X1057464D01*
X1032510Y1158800D02*
X1074980D01*
X1057464Y1211576D02*
X1059180Y1209860D01*
X577850Y1096010D02*
X736600Y1254760D01*
X601980Y1017270D02*
X687070Y1102360D01*
X746760Y1013460D02*
X759460Y1026160D01*
X772160Y972820D02*
X774073Y970907D01*
Y963098D02*
Y970907D01*
Y963098D02*
X780490Y956681D01*
Y890830D02*
Y956681D01*
X759460Y1026160D02*
X885190D01*
X860350Y916236D02*
X863552Y913034D01*
Y912390D02*
Y913034D01*
X687070Y1102360D02*
X1068070D01*
X885190Y1026160D02*
X896620Y1014730D01*
Y975360D02*
Y1014730D01*
X736600Y1254760D02*
X1078230D01*
X885190Y1026160D02*
X1050290D01*
X991870Y1168400D02*
Y1193800D01*
Y1143000D02*
X995125Y1139745D01*
X991870Y1193800D02*
X1023620D01*
X708612Y911120D02*
X709196Y911704D01*
Y930326D01*
X711496Y932626D01*
Y957956D01*
X721360Y967820D01*
Y972820D01*
X746760D02*
Y1013460D01*
X1370330Y946150D02*
Y1014779D01*
X1507490Y1018540D02*
X1534160Y991870D01*
X1367113Y1017996D02*
X1370330Y1014779D01*
X1427480Y1017270D02*
X1487170D01*
X1488440Y1018540D01*
X1307716Y1017996D02*
X1367113D01*
X1307507Y1018204D02*
X1307716Y1017996D01*
X1488440Y1018540D02*
X1507490D01*
X1151890Y528320D02*
Y552450D01*
X1146810Y557530D02*
X1151890Y552450D01*
X1065931Y552851D02*
X1070610Y557530D01*
X1146810D01*
X1181100Y558800D02*
X1193800Y571500D01*
X1143000Y603250D02*
X1201420D01*
X1047750Y643890D02*
X1143000D01*
X1099759Y770289D02*
X1103029D01*
Y775964D02*
X1105572Y778507D01*
X1198877D01*
X1201420Y781050D01*
X1082040Y796953D02*
X1103029Y775964D01*
X1082040Y796953D02*
Y918210D01*
X1127760Y948690D02*
X1256030D01*
X1050290Y1026160D02*
X1127760Y948690D01*
X1141730Y989330D02*
X1201420D01*
X1276350Y527050D02*
Y530179D01*
X1275479Y531050D02*
X1276350Y530179D01*
X1202690Y523240D02*
Y546592D01*
X1275479Y531050D02*
Y546592D01*
X1202690D02*
X1208548Y552450D01*
X1269621D02*
X1275479Y546592D01*
X1208548Y552450D02*
X1269621D01*
X1193800Y571500D02*
X1351280D01*
X1143000Y643890D02*
X1271270D01*
X1279186Y651806D01*
Y665777D01*
X1283970Y670560D01*
Y720090D01*
Y769620D02*
Y797560D01*
X1201420Y781050D02*
Y796290D01*
X1282700D01*
X1283970Y797560D01*
X1201420Y796290D02*
Y811530D01*
X1283970Y797560D02*
Y820420D01*
X1485900Y470720D02*
X1556200D01*
X1449147Y484613D02*
X1464310Y469450D01*
X1379660Y484613D02*
X1449147D01*
X1379660D02*
Y543120D01*
X1518920Y514080D02*
X1550670D01*
X1551940Y515350D01*
Y568960D01*
X1351280Y571500D02*
X1379660Y543120D01*
X1551940Y568960D02*
X1553210Y570230D01*
X1534160Y589280D02*
Y669290D01*
X1553210Y570230D02*
Y572712D01*
X1547205Y578717D02*
X1553210Y572712D01*
X1544723Y578717D02*
X1547205D01*
X1534160Y589280D02*
X1544723Y578717D01*
X1579880Y571500D02*
Y713740D01*
X1534160Y919480D02*
Y991870D01*
X1496060Y820420D02*
X1534160D01*
X1284605Y870585D02*
X1285240Y869950D01*
X1370330Y946150D02*
X1496060Y820420D01*
X1284605Y870585D02*
Y920115D01*
X1283970Y920750D02*
X1284605Y920115D01*
X1696720Y589280D02*
X1697990Y590550D01*
X1733080D01*
X1769110D02*
X1841500D01*
X1733080D02*
X1769110D01*
X1930400Y580390D02*
Y800100D01*
X1573530Y720090D02*
X1579880Y713740D01*
X1534160Y720090D02*
X1573530D01*
X1733080Y863600D02*
Y946620D01*
X1866900Y863600D02*
X1930400Y800100D01*
X1833080Y863600D02*
X1866900D01*
X1733080Y590550D02*
Y863600D01*
X1833080D02*
Y1218730D01*
X1586230Y1093470D02*
X1733080Y946620D01*
X693420Y335280D02*
X1744980D01*
X1256030Y948690D02*
X1283970Y920750D01*
X1696720Y496570D02*
Y589280D01*
X1566045Y410480D02*
Y460875D01*
X1769110Y412750D02*
X1841500D01*
X1697990D02*
X1769110D01*
X1578610Y570230D02*
X1579880Y571500D01*
X1556200Y470720D02*
X1566045Y460875D01*
X1582420Y515080D02*
X1614170D01*
X1582420D02*
Y566420D01*
X1578610Y570230D02*
X1582420Y566420D01*
X1930400Y439420D02*
Y529590D01*
X1903261Y412281D02*
X1930400Y439420D01*
X1307507Y1118193D02*
X1332230Y1093470D01*
X1103515Y1107555D02*
Y1158685D01*
Y1107555D02*
X1117600Y1093470D01*
X1078230Y1254760D02*
X1120140Y1212850D01*
X1151180D01*
X1149910Y1238250D02*
Y1263650D01*
X1151180Y1184910D02*
X1172210D01*
X1197610Y1159510D01*
X1219910Y1288490D02*
X1235710Y1304290D01*
X1219910Y1263650D02*
Y1288490D01*
Y1238250D02*
X1220545Y1237615D01*
Y1213485D02*
Y1237615D01*
Y1213485D02*
X1221180Y1212850D01*
X1668780Y1155700D02*
X1733550Y1090930D01*
X1367113Y1216996D02*
X1396934D01*
X1332230Y1093470D02*
X1586230D01*
X1488440Y1217540D02*
X1489710Y1218810D01*
X1219910Y1263650D02*
X1244211D01*
X1247140Y1260721D01*
Y1187839D02*
Y1260721D01*
X1473200Y1266190D02*
X1489710Y1249680D01*
X1611630Y1304290D02*
X1642110Y1273810D01*
X1307507Y1250357D02*
X1323340Y1266190D01*
X1235710Y1304290D02*
X1611630D01*
X1489710Y1218810D02*
Y1249680D01*
X1307507Y1217204D02*
Y1250357D01*
X1642110Y1273810D02*
X1751330D01*
X1323340Y1266190D02*
X1473200D01*
X1751330Y1273810D02*
X1779270Y1245870D01*
X1805940D01*
X1833080Y1218730D01*
X1221180Y1184910D02*
X1244211D01*
X1412240Y1155700D02*
X1668780D01*
X1244211Y1184910D02*
X1247140Y1187839D01*
X1396934Y1216996D02*
X1399540Y1214389D01*
X1396934Y1216996D02*
X1426754D01*
X1399540Y1168400D02*
Y1214389D01*
Y1168400D02*
X1412240Y1155700D01*
X1426754Y1216996D02*
X1427480Y1216270D01*
X1307507Y1118193D02*
Y1217204D01*
X1102690Y1159510D02*
X1103515Y1158685D01*
X1059180Y1185360D02*
X1118420D01*
X1127770Y1176010D01*
Y1161430D02*
Y1176010D01*
Y1161430D02*
X1129690Y1159510D01*
X1068070Y1102360D02*
X1075690Y1109980D01*
X1074980Y1158800D02*
X1075690Y1159510D01*
X1197610D02*
X1221180D01*
X1075690Y1109980D02*
Y1159510D01*
X1117600Y1093470D02*
X1332230D01*
X1129690Y1159510D02*
X1151180D01*
X958850Y381000D02*
X994410Y416560D01*
X1065931Y523240D02*
Y552851D01*
X994410Y416560D02*
Y508000D01*
X762894Y692890D02*
X781098D01*
X710490Y673100D02*
Y706680D01*
X699770Y740410D02*
X721995Y718185D01*
X710490Y706680D02*
X721995Y718185D01*
X728980Y725170D01*
X756920Y697790D02*
X757994D01*
X762894Y692890D01*
X910477Y697790D02*
X915377Y692890D01*
X930958D01*
X930654Y692586D02*
X930958Y692890D01*
X1012190Y725170D02*
X1027430Y740410D01*
X994410Y664941D02*
X1099759Y770289D01*
X670560Y358140D02*
X693420Y335280D01*
X635000Y381000D02*
Y637540D01*
X636270Y638810D01*
X670560Y358140D02*
Y701040D01*
X613410Y689610D02*
X636270D01*
X577850Y687070D02*
X600710Y664210D01*
X636270D01*
X710490Y644079D02*
Y673100D01*
Y644079D02*
X718820Y635749D01*
Y628650D02*
Y635749D01*
X744220Y594360D02*
Y628650D01*
Y594360D02*
X760730Y577850D01*
X769620Y628650D02*
Y662230D01*
X780794Y673404D01*
X601980Y701040D02*
X613410Y689610D01*
X636270Y740410D02*
X699770D01*
X657189Y714411D02*
X670560Y701040D01*
X636270Y715010D02*
X636869Y714411D01*
X636270Y765810D02*
X637609Y767149D01*
X642559D01*
X643200Y767790D01*
X636869Y714411D02*
X657189D01*
X757155Y768025D02*
X780863D01*
X643200Y767790D02*
X756920D01*
X757155Y768025D01*
X760730Y577850D02*
X895350D01*
X703166Y381000D02*
X958850D01*
X860350Y646039D02*
Y671830D01*
Y708100D01*
Y646039D02*
X869950Y636439D01*
Y627380D02*
Y636439D01*
X895350Y577850D02*
X895350Y577850D01*
Y627380D01*
X920750D02*
Y662230D01*
X930654Y672134D02*
Y692586D01*
X895350Y577850D02*
X981710D01*
X994410Y664210D02*
Y664941D01*
X981710Y577850D02*
X1047750Y643890D01*
X780863Y768025D02*
X781098Y768260D01*
X908050Y697790D02*
X910477D01*
X781098Y768260D02*
X781333Y768025D01*
X728980Y725170D02*
X843280D01*
X781333Y768025D02*
X907815D01*
X843280Y725170D02*
X860350Y708100D01*
X908050Y767790D02*
X908285Y768025D01*
X907815D02*
X908050Y767790D01*
X908285Y768025D02*
X930723D01*
X843280Y725170D02*
X1012190D01*
X930723Y768025D02*
X930958Y768260D01*
X1027430Y740410D02*
Y775363D01*
X708612Y835750D02*
X708847Y835985D01*
X636270Y791210D02*
Y822960D01*
X649060Y835750D01*
X708612D01*
Y911120D02*
X726733D01*
X708847Y835985D02*
X733825D01*
X726733Y911120D02*
X731633Y906220D01*
X734060D01*
X733825Y835985D02*
X734060Y836220D01*
X863152Y836620D02*
X864022Y837490D01*
X734060Y836220D02*
X734460Y836620D01*
X780490Y890830D02*
X793750Y877570D01*
X734460Y836620D02*
X863152D01*
X793750Y877570D02*
X915670D01*
X863552Y912390D02*
X881756D01*
X864022Y837490D02*
X887730D01*
X881756Y912390D02*
X886656Y907490D01*
X922020Y968261D02*
Y975360D01*
X886656Y907490D02*
X887730D01*
X922020Y975360D02*
X1018540D01*
X915670Y877570D02*
X930350Y892250D01*
X922020Y968261D02*
X930350Y959931D01*
Y932180D02*
Y959931D01*
Y892250D02*
Y932180D01*
X1018540Y975360D02*
X1031240Y962660D01*
Y918210D02*
Y962660D01*
X1028031Y915001D02*
X1031240Y918210D01*
X577850Y687070D02*
Y1096010D01*
X601980Y701040D02*
Y1017270D01*
X1027430Y775363D02*
X1028031Y775964D01*
Y915001D01*
X1869096Y412281D02*
X1903261D01*
X1744980Y335280D02*
X1769110Y359410D01*
Y412750D01*
X1868627D02*
X1869096Y412281D01*
X1841500Y412750D02*
X1868627D01*
X1080770Y361950D02*
X1239520D01*
X1066800Y375920D02*
X1080770Y361950D01*
X1091975Y423135D02*
Y473485D01*
X1066800Y375920D02*
Y422910D01*
X1092200Y393208D02*
X1098058Y387350D01*
X1117600Y422910D02*
X1153160D01*
X1066800D02*
X1067025Y423135D01*
X1098058Y387350D02*
X1219200D01*
X1091975Y423135D02*
X1092200Y422910D01*
X1067025Y423135D02*
Y473485D01*
X1092200Y393208D02*
Y422910D01*
X1095652Y518518D02*
X1111250Y502920D01*
X1067025Y473485D02*
X1067250Y473710D01*
X1090930Y522675D02*
X1091340Y522265D01*
X1066590Y474370D02*
X1067250Y473710D01*
X1091340Y522265D02*
X1095088Y518518D01*
X1066590Y474370D02*
Y522580D01*
X1091340Y474120D02*
Y522265D01*
X1091750Y473710D02*
X1091975Y473485D01*
X1090930Y522675D02*
Y523240D01*
X1091340Y474120D02*
X1091750Y473710D01*
X1095088Y518518D02*
X1095652D01*
X1065931Y523240D02*
X1066590Y522580D01*
X1111250Y502920D02*
X1151890D01*
X1202915Y474755D02*
X1203140Y474980D01*
X1239520Y361950D02*
X1253490Y375920D01*
X1227865Y424405D02*
X1228090Y424180D01*
X1253490Y375920D02*
Y424180D01*
X1219200Y387350D02*
X1228090Y396240D01*
X1202690Y424180D02*
X1202915Y424405D01*
X1228090Y396240D02*
Y424180D01*
X1153160Y422910D02*
X1181100Y450850D01*
X1227640Y474980D02*
X1227865Y474755D01*
X1202915Y424405D02*
Y474755D01*
X1227865Y424405D02*
Y474755D01*
X1246279Y501650D02*
X1285240D01*
X1202915Y475205D02*
X1203140Y474980D01*
X1202915Y475205D02*
Y523015D01*
X1227640Y474980D02*
X1227665Y475005D01*
Y523215D02*
X1227689Y523240D01*
X1181100Y450850D02*
Y558800D01*
X1227665Y475005D02*
Y523215D01*
X1202690Y523240D02*
X1202915Y523015D01*
X1227689Y520240D02*
Y523240D01*
Y520240D02*
X1246279Y501650D01*
X1529080Y374650D02*
X1602740D01*
X1614170Y411480D02*
Y468630D01*
X1518920Y384810D02*
Y412585D01*
X1285240Y501650D02*
X1352278Y434613D01*
X1602740Y374650D02*
X1614170Y386080D01*
X1518920Y384810D02*
X1529080Y374650D01*
X1515030Y416475D02*
X1518920Y412585D01*
X1515030Y416475D02*
Y417090D01*
X1352278Y434613D02*
X1379660D01*
X1485900Y446220D02*
X1515030Y417090D01*
X1379660Y434613D02*
X1474292D01*
X1485900Y446220D01*
X1464310Y469450D02*
X1485900D01*
X1550670Y410480D02*
X1566045D01*
X1614170Y386080D02*
Y411480D01*
X1566045Y410480D02*
X1581420D01*
X1582420Y411480D01*
X1624330Y478790D02*
X1678940D01*
X1614170Y468630D02*
X1624330Y478790D01*
X1678940D02*
X1696720Y496570D01*
D49*
X705000Y381000D02*
D03*
X635000D02*
D03*
X780490Y673100D02*
D03*
X710490D02*
D03*
X756920Y767790D02*
D03*
Y697790D02*
D03*
X930350Y671830D02*
D03*
X860350D02*
D03*
X908050Y767790D02*
D03*
Y697790D02*
D03*
X1067250Y473710D02*
D03*
X1091750D02*
D03*
X710490Y930910D02*
D03*
X780490D02*
D03*
X734060Y836220D02*
D03*
Y906220D02*
D03*
X860350Y932180D02*
D03*
X930350D02*
D03*
X887730Y837490D02*
D03*
Y907490D02*
D03*
X1104340Y1126490D02*
D03*
X1034340D02*
D03*
X1032510Y1158800D02*
D03*
Y1228800D02*
D03*
X1151180Y1159510D02*
D03*
X1221180D02*
D03*
X1151180Y1184910D02*
D03*
X1221180D02*
D03*
X1059180Y1209860D02*
D03*
Y1185360D02*
D03*
X1151180Y1212850D02*
D03*
X1221180D02*
D03*
X1219910Y1238250D02*
D03*
X1149910D02*
D03*
Y1263650D02*
D03*
X1219910D02*
D03*
X1203140Y474980D02*
D03*
X1227640D02*
D03*
X1485900Y470720D02*
D03*
Y446220D02*
D03*
D50*
X636270Y638810D02*
D03*
D51*
Y664210D02*
D03*
Y689610D02*
D03*
Y715010D02*
D03*
Y740410D02*
D03*
Y765810D02*
D03*
Y791210D02*
D03*
D52*
X718820Y628650D02*
D03*
X744220D02*
D03*
X869950Y627380D02*
D03*
X895350D02*
D03*
X772160Y972820D02*
D03*
X746760D02*
D03*
X922020Y975360D02*
D03*
X896620D02*
D03*
D53*
X769620Y628650D02*
D03*
X920750Y627380D02*
D03*
X721360Y972820D02*
D03*
X871220Y975360D02*
D03*
D54*
X781098Y768260D02*
D03*
X930958D02*
D03*
X708612Y835750D02*
D03*
X863552Y837020D02*
D03*
D55*
X781098Y692890D02*
D03*
X930958D02*
D03*
X708612Y911120D02*
D03*
X863552Y912390D02*
D03*
D56*
X1065931Y523240D02*
D03*
X1202690D02*
D03*
D57*
X1090930D02*
D03*
X1227689D02*
D03*
D58*
X1066800Y422910D02*
D03*
X1092200D02*
D03*
X1202690Y424180D02*
D03*
X1228090D02*
D03*
D59*
X1117600Y422910D02*
D03*
X1253490Y424180D02*
D03*
D60*
X1143000Y603250D02*
D03*
Y643890D02*
D03*
X1141730Y948690D02*
D03*
Y989330D02*
D03*
D61*
X1151890Y528320D02*
D03*
X1276350Y501650D02*
D03*
X1930400Y580390D02*
D03*
D62*
X1151890Y502920D02*
D03*
X1276350Y527050D02*
D03*
X1930400Y529590D02*
D03*
D63*
X1103029Y775964D02*
D03*
X1028031D02*
D03*
D64*
X1029970Y904240D02*
D03*
X1578610Y570230D02*
D03*
D65*
X1080770Y904240D02*
D03*
X1553210Y570230D02*
D03*
D66*
X991870Y1193800D02*
D03*
Y1168400D02*
D03*
D67*
Y1143000D02*
D03*
D68*
X1075690Y1159510D02*
D03*
D69*
X1129690D02*
D03*
X1102690D02*
D03*
D70*
X1379660Y434613D02*
D03*
Y484613D02*
D03*
D71*
X1518920Y410480D02*
D03*
X1550670Y514080D02*
D03*
X1582420Y515080D02*
D03*
X1614170Y411480D02*
D03*
D72*
X1518920Y514080D02*
D03*
X1550670Y410480D02*
D03*
X1582420Y411480D02*
D03*
X1614170Y515080D02*
D03*
D73*
X1697990Y412750D02*
D03*
Y590550D02*
D03*
X1769110Y412750D02*
D03*
Y590550D02*
D03*
X1841500Y412750D02*
D03*
Y590550D02*
D03*
X1201420Y781050D02*
D03*
Y603250D02*
D03*
Y989330D02*
D03*
Y811530D02*
D03*
D74*
X1534160Y919480D02*
D03*
Y869950D02*
D03*
Y820420D02*
D03*
Y769620D02*
D03*
Y720090D02*
D03*
Y669290D02*
D03*
X1283970Y670560D02*
D03*
Y720090D02*
D03*
Y769620D02*
D03*
Y820420D02*
D03*
X1285240Y869950D02*
D03*
X1283970Y920750D02*
D03*
D75*
X1733080Y863600D02*
D03*
X1833080D02*
D03*
D76*
X1427480Y1017270D02*
D03*
X1367113Y1017996D02*
D03*
X1307507Y1217204D02*
D03*
X1488440Y1217540D02*
D03*
D77*
X1427480Y1216270D02*
D03*
X1367113Y1216996D02*
D03*
X1307507Y1018204D02*
D03*
X1488440Y1018540D02*
D03*
D78*
X1733550Y1090930D02*
D03*
X1779270Y1245870D02*
D03*
D79*
X994410Y508000D02*
D03*
Y664210D02*
D03*
D80*
X1033070Y1125220D02*
X1034340Y1126490D01*
X991870Y1129030D02*
Y1143000D01*
Y1129030D02*
X995680Y1125220D01*
X1033070D01*
X1103029Y770289D02*
Y775964D01*
M02*
