M48
;Layer_Color=9474304
;FILE_FORMAT=4:4
METRIC,LZ
;TYPE=PLATED
T1F00S00C0.7100
T2F00S00C0.7112
T3F00S00C0.7300
T4F00S00C0.7500
T5F00S00C0.9000
T6F00S00C0.9144
T7F00S00C1.0000
T8F00S00C1.0600
T9F00S00C1.1000
T10F00S00C1.2000
T11F00S00C1.2400
T12F00S00C1.2700
T13F00S00C1.3200
T14F00S00C1.5000
T15F00S00C2.3000
%
T01
X01143Y0060325
Y0064389
X0114173Y0094869
Y0098933
X0099187Y01143
Y011684
Y011938
T02
X0099441Y00508
Y0066421
T03
X00930958Y0069289
X00781098
Y0076826
X00708612Y0083575
Y0091112
X00863552Y0091239
Y0083702
X00930958Y0076826
T04
X0120314Y0047498
X0122764
X014859Y0047072
Y0044622
X0109175Y0047371
X0106725
X0093035Y0067183
X0090805Y0069779
X0086035Y0067183
X0078049Y006731
X0075692Y0069779
X0071049Y006731
X00705Y00381
X00635
X0075692Y0076779
X0073406Y0083622
Y0090622
X0071049Y0093091
X0078049
X0086035Y0093218
X0088773Y0090749
X0093035Y0093218
X0088773Y0083749
X0090805Y0076779
X0122118Y0115951
Y0118491
Y0121285
X0121991Y0123825
Y0126365
X0114991
Y0123825
X0115118Y0121285
Y0118491
Y0115951
X0110434Y0112649
X0103434
X0103251Y011588
X0105918Y0118536
Y0120986
X0103251Y012288
T05
X0120269Y0052324
X01227689
X0137966Y00484613
Y00434613
X0109093Y0052324
X01065931
T06
X0173355Y0109093
X0177927Y0124587
T07
X0107569Y0115951
X0110269
X0112969
T08
X0161417Y0041148
Y0051508
X0158242
X0155067Y0051408
X0151892
Y0041048
X0155067
X0158242Y0041148
T09
X0063627Y0063881
Y0066421
Y0068961
Y0071501
Y0074041
Y0076581
Y0079121
T10
X019304Y0052959
Y0058039
X0157861Y0057023
X0155321
X0153416Y0066929
X0128397Y0067056
X0127635Y0052705
Y0050165
X0115189Y0050292
Y0052832
X01103029Y00775964
X01028031
X0102997Y0090424
X0108077
X0128397Y0092075
X0128524Y0086995
X0128397Y0082042
Y0076962
Y0072009
X0153416
Y0076962
Y0082042
Y0086995
Y0091948
T11
X0120269Y0042418
X0122809
X0125349
X011176Y0042291
X010922
X010668
T12
X0169799Y0041275
X0176911
X018415
Y0059055
X0176911
X0169799
X0120142Y0060325
Y0078105
Y0081153
Y0098933
T13
X0086995Y0062738
X0089535
X0092075
X0076962Y0062865
X0074422
X0071882
X0072136Y0097282
X0074676
X0077216
X0087122Y0097536
X0089662
X0092202
T14
X01307507Y01018204
X01367113Y01017996
X0142748Y0101727
X0148844Y0101854
Y0121754
X0142748Y0121627
X01367113Y01216996
X01307507Y01217204
T15
X0173308Y008636
X0183308
M30
