G04*
G04 #@! TF.GenerationSoftware,Altium Limited,Altium Designer,23.1.1 (15)*
G04*
G04 Layer_Physical_Order=2*
G04 Layer_Color=16711680*
%FSLAX44Y44*%
%MOMM*%
G71*
G04*
G04 #@! TF.SameCoordinates,0FB3FEEF-472E-44F8-A7E0-F8DED477CAFB*
G04*
G04*
G04 #@! TF.FilePolarity,Positive*
G04*
G01*
G75*
%ADD15C,0.2540*%
%ADD28C,1.3970*%
%ADD29O,2.0000X1.0000*%
%ADD30R,1.8000X1.8000*%
%ADD31C,1.7780*%
%ADD32O,3.0000X2.4000*%
G04:AMPARAMS|DCode=33|XSize=2.4mm|YSize=3mm|CornerRadius=0.6mm|HoleSize=0mm|Usage=FLASHONLY|Rotation=270.000|XOffset=0mm|YOffset=0mm|HoleType=Round|Shape=RoundedRectangle|*
%AMROUNDEDRECTD33*
21,1,2.4000,1.8000,0,0,270.0*
21,1,1.2000,3.0000,0,0,270.0*
1,1,1.2000,-0.9000,-0.6000*
1,1,1.2000,-0.9000,0.6000*
1,1,1.2000,0.9000,0.6000*
1,1,1.2000,0.9000,-0.6000*
%
%ADD33ROUNDEDRECTD33*%
G04:AMPARAMS|DCode=34|XSize=1.1mm|YSize=2.032mm|CornerRadius=0.11mm|HoleSize=0mm|Usage=FLASHONLY|Rotation=180.000|XOffset=0mm|YOffset=0mm|HoleType=Round|Shape=RoundedRectangle|*
%AMROUNDEDRECTD34*
21,1,1.1000,1.8120,0,0,180.0*
21,1,0.8800,2.0320,0,0,180.0*
1,1,0.2200,-0.4400,0.9060*
1,1,0.2200,0.4400,0.9060*
1,1,0.2200,0.4400,-0.9060*
1,1,0.2200,-0.4400,-0.9060*
%
%ADD34ROUNDEDRECTD34*%
%ADD35O,1.1000X2.0320*%
%ADD36R,1.3970X1.3970*%
G04:AMPARAMS|DCode=37|XSize=1.1mm|YSize=2.032mm|CornerRadius=0.11mm|HoleSize=0mm|Usage=FLASHONLY|Rotation=270.000|XOffset=0mm|YOffset=0mm|HoleType=Round|Shape=RoundedRectangle|*
%AMROUNDEDRECTD37*
21,1,1.1000,1.8120,0,0,270.0*
21,1,0.8800,2.0320,0,0,270.0*
1,1,0.2200,-0.9060,-0.4400*
1,1,0.2200,-0.9060,0.4400*
1,1,0.2200,0.9060,0.4400*
1,1,0.2200,0.9060,-0.4400*
%
%ADD37ROUNDEDRECTD37*%
%ADD38O,2.0320X1.1000*%
%ADD39C,0.5000*%
%ADD40C,1.3000*%
%ADD41C,1.2000*%
%ADD42C,0.8000*%
%ADD43C,1.0000*%
%ADD44C,1.5000*%
%ADD45C,1.4000*%
G36*
X282650Y367030D02*
X259790D01*
Y387886D01*
X282650D01*
Y367030D01*
D02*
G37*
G36*
X212650D02*
X189790D01*
Y389890D01*
X212650D01*
Y367030D01*
D02*
G37*
G36*
X104140Y351230D02*
X81280D01*
Y374090D01*
X104140D01*
Y351230D01*
D02*
G37*
G36*
X149860Y342340D02*
X127000D01*
Y365200D01*
X149860D01*
Y342340D01*
D02*
G37*
G36*
X285140Y322630D02*
X262280D01*
Y345440D01*
X285140D01*
Y322630D01*
D02*
G37*
G36*
X205740Y322580D02*
X182880D01*
Y345440D01*
X205740D01*
Y322580D01*
D02*
G37*
G36*
X423620Y347830D02*
Y337820D01*
Y314960D01*
X388620D01*
X360680Y342900D01*
X317500D01*
X308610Y334010D01*
Y309880D01*
X295960Y297230D01*
X262280D01*
Y320040D01*
X292100D01*
X295910Y323850D01*
Y344170D01*
X322430Y370690D01*
X423620D01*
Y347830D01*
D02*
G37*
G36*
X353620Y314960D02*
X330760D01*
Y337820D01*
X353620D01*
Y314960D01*
D02*
G37*
G36*
X205740Y301272D02*
X182880D01*
Y319990D01*
X205740D01*
Y301272D01*
D02*
G37*
G36*
X104140Y281230D02*
X81280D01*
Y304090D01*
X104140D01*
Y281230D01*
D02*
G37*
G36*
X148892Y272934D02*
X126032D01*
Y295795D01*
X148892D01*
Y272934D01*
D02*
G37*
G36*
X206774Y272207D02*
X183914D01*
Y290994D01*
X206774D01*
Y272207D01*
D02*
G37*
G36*
X285140Y271780D02*
X262280D01*
Y294640D01*
X285140D01*
Y271780D01*
D02*
G37*
G36*
Y247700D02*
X265430D01*
X264439Y247503D01*
X263599Y246941D01*
X263550Y246893D01*
X262280Y247418D01*
Y269240D01*
X285140D01*
Y247700D01*
D02*
G37*
G36*
X462840Y311150D02*
X459740D01*
Y292100D01*
X414020Y246380D01*
X370840D01*
Y269240D01*
X400760D01*
X430530Y299010D01*
Y334010D01*
X462840D01*
Y311150D01*
D02*
G37*
G36*
X330760Y246380D02*
X307900D01*
Y269240D01*
X330760D01*
Y246380D01*
D02*
G37*
G36*
X205740D02*
X182880D01*
Y269240D01*
X205740D01*
Y246380D01*
D02*
G37*
G36*
X104980Y246100D02*
X82120D01*
Y268960D01*
X104980D01*
Y246100D01*
D02*
G37*
G36*
X205740Y220980D02*
X182880D01*
Y243790D01*
X205740D01*
Y220980D01*
D02*
G37*
G36*
X69850Y219769D02*
X46990D01*
Y238310D01*
X69850D01*
Y219769D01*
D02*
G37*
G36*
X643890Y248920D02*
Y223520D01*
X636270Y215900D01*
X605790D01*
X604520Y217170D01*
Y238760D01*
X598170Y245110D01*
Y266700D01*
X626110D01*
X643890Y248920D01*
D02*
G37*
G36*
X252730Y410210D02*
X219710D01*
X204470Y394970D01*
X77470D01*
X36830Y354330D01*
Y344774D01*
X36576Y344604D01*
X35771Y343400D01*
X35489Y341980D01*
Y333180D01*
X35771Y331760D01*
X36576Y330556D01*
X36830Y330386D01*
Y326964D01*
X36577Y326635D01*
X35767Y324679D01*
X35491Y322580D01*
X35767Y320481D01*
X36577Y318525D01*
X36830Y318196D01*
Y307340D01*
X36830D01*
X36830Y307340D01*
Y208280D01*
Y207010D01*
X7620D01*
X6350Y208280D01*
Y307340D01*
Y397510D01*
X26670Y417830D01*
X252730D01*
Y410210D01*
D02*
G37*
G36*
X205740Y198774D02*
X182880D01*
Y218390D01*
X205740D01*
Y198774D01*
D02*
G37*
G36*
X139700D02*
X116840D01*
Y219150D01*
X139700D01*
Y198774D01*
D02*
G37*
G36*
X400760Y196850D02*
X377900D01*
Y219710D01*
X400760D01*
Y196850D01*
D02*
G37*
G36*
X330760D02*
X307900D01*
Y219710D01*
X330760D01*
Y196850D01*
D02*
G37*
G36*
X69850Y195923D02*
X68580Y195246D01*
X68301Y195433D01*
X67310Y195630D01*
X60364D01*
X60032Y195564D01*
X59694Y195541D01*
X59333Y195445D01*
X57507D01*
X57146Y195541D01*
X56808Y195564D01*
X56476Y195630D01*
X46990D01*
Y209491D01*
X69850D01*
Y195923D01*
D02*
G37*
G36*
X632460Y193040D02*
X609600D01*
Y213310D01*
X632460D01*
Y193040D01*
D02*
G37*
G36*
X76200Y184150D02*
Y137160D01*
X8890D01*
X8890Y187960D01*
X13970Y193040D01*
X56476D01*
X57166Y192855D01*
X59674D01*
X60364Y193040D01*
X67310D01*
X76200Y184150D01*
D02*
G37*
G36*
X285140Y170230D02*
X262280D01*
Y193040D01*
X285140D01*
Y170230D01*
D02*
G37*
G36*
X539750Y318770D02*
Y223520D01*
X596900Y166370D01*
X646430D01*
X654050Y158750D01*
Y36830D01*
X612140Y-5080D01*
X307340D01*
X232410Y69850D01*
X115570D01*
X93980Y91440D01*
X8890D01*
Y124460D01*
X93980D01*
Y154940D01*
X127536Y188496D01*
X204343D01*
X205599Y187657D01*
X205627Y187652D01*
Y170068D01*
X182768D01*
Y173421D01*
X158181D01*
X142215Y157455D01*
X142215Y133375D01*
X161240Y114350D01*
X161240Y95250D01*
X161437Y94259D01*
X161834Y93666D01*
Y88356D01*
X165100Y85090D01*
X276860D01*
X287020Y74930D01*
X468630D01*
X474980Y81280D01*
Y113030D01*
X480060Y118110D01*
X504190D01*
X510540Y111760D01*
Y100330D01*
X544830Y66040D01*
X619760D01*
X637540Y83820D01*
Y138430D01*
X633730Y142240D01*
X594360D01*
X521970Y214630D01*
X477520Y214630D01*
Y330200D01*
X454660Y353060D01*
Y369570D01*
X488950D01*
X539750Y318770D01*
D02*
G37*
G36*
X632460Y168960D02*
X609600D01*
Y190450D01*
X632460D01*
Y168960D01*
D02*
G37*
G36*
X400760Y151130D02*
X377900D01*
Y173990D01*
X400760D01*
Y151130D01*
D02*
G37*
G36*
X330760D02*
X307900D01*
Y173990D01*
X330760D01*
Y151130D01*
D02*
G37*
G36*
X285140Y144780D02*
X262280D01*
Y167640D01*
X285140D01*
Y144780D01*
D02*
G37*
G36*
X461010Y229870D02*
Y214630D01*
X431800D01*
X422910Y223520D01*
X375920D01*
X369570Y217170D01*
Y132080D01*
X383849Y117801D01*
X454969D01*
Y95559D01*
X449580Y90170D01*
X321310D01*
X316230Y95250D01*
X163830D01*
X163830Y123190D01*
X151130Y135890D01*
Y153670D01*
X163830Y166370D01*
X209550Y166370D01*
Y194310D01*
X214630D01*
X262890Y242570D01*
X290830D01*
Y199390D01*
X288290Y196850D01*
X257810D01*
X251460Y190500D01*
Y148590D01*
X264160Y135890D01*
X335280D01*
X346710Y147320D01*
Y222250D01*
X367030Y242570D01*
X448310D01*
X461010Y229870D01*
D02*
G37*
G36*
X588010Y135890D02*
X626110D01*
X631190Y130810D01*
Y119380D01*
X627380Y115570D01*
X588010D01*
X529590Y173990D01*
X438150D01*
X425450Y186690D01*
Y199390D01*
X524180D01*
X524413Y199487D01*
X588010Y135890D01*
D02*
G37*
G36*
X543560Y151130D02*
X582930Y111760D01*
X628650D01*
Y85090D01*
X580390Y85090D01*
X532130Y133350D01*
X424180D01*
Y151130D01*
X543560Y151130D01*
D02*
G37*
D15*
X638426Y287416D02*
Y297413D01*
X633427D01*
X631761Y295747D01*
Y292414D01*
X633427Y290748D01*
X638426D01*
X628429Y287416D02*
Y294081D01*
X625097Y297413D01*
X621764Y294081D01*
Y287416D01*
Y292414D01*
X628429D01*
X618432Y285750D02*
X611768D01*
X601771Y295747D02*
X603437Y297413D01*
X606769D01*
X608436Y295747D01*
Y289082D01*
X606769Y287416D01*
X603437D01*
X601771Y289082D01*
Y292414D01*
X605103D01*
X638426Y310276D02*
Y320273D01*
X633427D01*
X631761Y318607D01*
Y315275D01*
X633427Y313608D01*
X638426D01*
X628429Y320273D02*
Y310276D01*
X623431D01*
X621764Y311942D01*
Y313608D01*
X623431Y315275D01*
X628429D01*
X623431D01*
X621764Y316941D01*
Y318607D01*
X623431Y320273D01*
X628429D01*
X618432Y308610D02*
X611768D01*
X601771Y318607D02*
X603437Y320273D01*
X606769D01*
X608436Y318607D01*
Y311942D01*
X606769Y310276D01*
X603437D01*
X601771Y311942D01*
Y315275D01*
X605103D01*
X638426Y400050D02*
X635093D01*
X636760D01*
Y410047D01*
X638426Y408381D01*
X623431Y400050D02*
X630095D01*
X623431Y406715D01*
Y408381D01*
X625097Y410047D01*
X628429D01*
X630095Y408381D01*
X620098Y410047D02*
Y403382D01*
X616766Y400050D01*
X613434Y403382D01*
Y410047D01*
X638426Y387187D02*
Y380522D01*
X635093Y377190D01*
X631761Y380522D01*
Y387187D01*
X628429Y375524D02*
X621764D01*
X611768Y387187D02*
X618432D01*
Y382188D01*
X615100D01*
X618432D01*
Y377190D01*
X608436Y387187D02*
Y377190D01*
X603437D01*
X601771Y378856D01*
Y380522D01*
X603437Y382188D01*
X608436D01*
X603437D01*
X601771Y383854D01*
Y385521D01*
X603437Y387187D01*
X608436D01*
X638426Y364327D02*
X635093D01*
X636760D01*
Y354330D01*
X638426D01*
X635093D01*
X630095Y352664D02*
X623431D01*
X613434Y362661D02*
X615100Y364327D01*
X618432D01*
X620098Y362661D01*
Y360994D01*
X618432Y359328D01*
X615100D01*
X613434Y357662D01*
Y355996D01*
X615100Y354330D01*
X618432D01*
X620098Y355996D01*
X603437Y364327D02*
X610102D01*
Y354330D01*
X603437D01*
X610102Y359328D02*
X606769D01*
X600105Y354330D02*
Y364327D01*
X593440Y354330D01*
Y364327D01*
X583443Y362661D02*
X585110Y364327D01*
X588442D01*
X590108Y362661D01*
Y360994D01*
X588442Y359328D01*
X585110D01*
X583443Y357662D01*
Y355996D01*
X585110Y354330D01*
X588442D01*
X590108Y355996D01*
X573447Y364327D02*
X580111D01*
Y354330D01*
X573447D01*
X580111Y359328D02*
X576779D01*
X129570Y33013D02*
X139727D01*
Y17778D01*
X129570D01*
X139727Y25396D02*
X134649D01*
X114335Y33013D02*
X124492D01*
Y17778D01*
X114335D01*
X124492Y25396D02*
X119414D01*
X99100Y33013D02*
X109257D01*
Y17778D01*
X99100D01*
X109257Y25396D02*
X104179D01*
X91483Y15239D02*
X88944Y17778D01*
Y20317D01*
X91483D01*
Y17778D01*
X88944D01*
X91483Y15239D01*
X94022Y12700D01*
X53395Y33013D02*
X58473D01*
X55934D01*
Y20317D01*
X58473Y17778D01*
X61013D01*
X63552Y20317D01*
X48317Y33013D02*
Y20317D01*
X45778Y17778D01*
X40699D01*
X38160Y20317D01*
Y33013D01*
X22925Y30474D02*
X25464Y33013D01*
X30542D01*
X33082Y30474D01*
Y27935D01*
X30542Y25396D01*
X25464D01*
X22925Y22857D01*
Y20317D01*
X25464Y17778D01*
X30542D01*
X33082Y20317D01*
X17846Y33013D02*
X7690D01*
X12768D01*
Y17778D01*
X78787Y86355D02*
X68630D01*
X73709D01*
Y71120D01*
X63552Y86355D02*
Y71120D01*
X53395D01*
X40699D02*
Y86355D01*
X48317Y78738D01*
X38160D01*
X33082Y73659D02*
X30542Y71120D01*
X25464D01*
X22925Y73659D01*
Y83816D01*
X25464Y86355D01*
X30542D01*
X33082Y83816D01*
Y81277D01*
X30542Y78738D01*
X22925D01*
X10229Y71120D02*
Y86355D01*
X17846Y78738D01*
X7690D01*
X213363Y59684D02*
X215903Y62223D01*
X220981D01*
X223520Y59684D01*
Y49528D01*
X220981Y46988D01*
X215903D01*
X213363Y49528D01*
X205746Y46988D02*
X200667D01*
X198128Y49528D01*
Y54606D01*
X200667Y57145D01*
X205746D01*
X208285Y54606D01*
Y49528D01*
X205746Y46988D01*
X193050D02*
Y57145D01*
X185432D01*
X182893Y54606D01*
Y46988D01*
X175276Y59684D02*
Y57145D01*
X177815D01*
X172736D01*
X175276D01*
Y49528D01*
X172736Y46988D01*
X165119Y57145D02*
Y46988D01*
Y52067D01*
X162580Y54606D01*
X160040Y57145D01*
X157501D01*
X147345Y46988D02*
X142266D01*
X139727Y49528D01*
Y54606D01*
X142266Y57145D01*
X147345D01*
X149884Y54606D01*
Y49528D01*
X147345Y46988D01*
X134649D02*
X129570D01*
X132110D01*
Y62223D01*
X134649D01*
X121953Y46988D02*
X116875D01*
X119414D01*
Y62223D01*
X121953D01*
X106718Y57145D02*
X101639D01*
X99100Y54606D01*
Y46988D01*
X106718D01*
X109257Y49528D01*
X106718Y52067D01*
X99100D01*
X94022Y57145D02*
Y46988D01*
Y52067D01*
X91483Y54606D01*
X88944Y57145D01*
X86404D01*
X53395Y59684D02*
X55934Y62223D01*
X61013D01*
X63552Y59684D01*
Y49528D01*
X61013Y46988D01*
X55934D01*
X53395Y49528D01*
X45778Y57145D02*
X40699D01*
X38160Y54606D01*
Y46988D01*
X45778D01*
X48317Y49528D01*
X45778Y52067D01*
X38160D01*
X33082Y57145D02*
Y46988D01*
Y52067D01*
X30542Y54606D01*
X28003Y57145D01*
X25464D01*
X7690Y62223D02*
Y46988D01*
X15307D01*
X17846Y49528D01*
Y54606D01*
X15307Y57145D01*
X7690D01*
X631761Y341467D02*
X633427Y343133D01*
X636760D01*
X638426Y341467D01*
Y334802D01*
X636760Y333136D01*
X633427D01*
X631761Y334802D01*
Y338134D01*
X635093D01*
X628429Y333136D02*
Y343133D01*
X621764Y333136D01*
Y343133D01*
X618432D02*
Y333136D01*
X613434D01*
X611768Y334802D01*
Y341467D01*
X613434Y343133D01*
X618432D01*
D28*
X319330Y162560D02*
D03*
X389330D02*
D03*
X389330Y208280D02*
D03*
X319330D02*
D03*
X167640Y156660D02*
D03*
Y181160D02*
D03*
X58420Y202380D02*
D03*
Y226880D02*
D03*
X21590Y181460D02*
D03*
Y251460D02*
D03*
X194310Y308610D02*
D03*
Y283210D02*
D03*
Y257810D02*
D03*
Y232410D02*
D03*
Y207010D02*
D03*
Y181610D02*
D03*
Y156210D02*
D03*
X273710D02*
D03*
Y181610D02*
D03*
Y207010D02*
D03*
Y232410D02*
D03*
Y257810D02*
D03*
Y283210D02*
D03*
Y308610D02*
D03*
Y334010D02*
D03*
X128270Y207720D02*
D03*
Y137720D02*
D03*
X92710Y257250D02*
D03*
Y187250D02*
D03*
X201220Y378460D02*
D03*
X271220D02*
D03*
X138430Y283770D02*
D03*
Y353770D02*
D03*
X92710Y362660D02*
D03*
Y292660D02*
D03*
X412040Y359410D02*
D03*
X482040D02*
D03*
X342190Y326390D02*
D03*
X412190D02*
D03*
X319330Y257810D02*
D03*
X389330D02*
D03*
X451410Y322580D02*
D03*
X521410D02*
D03*
D29*
X497840Y219710D02*
D03*
Y207010D02*
D03*
Y194310D02*
D03*
X491500Y113030D02*
D03*
Y125730D02*
D03*
Y138430D02*
D03*
X447040Y219710D02*
D03*
Y207010D02*
D03*
Y194310D02*
D03*
X440700Y113030D02*
D03*
Y125730D02*
D03*
Y138430D02*
D03*
D30*
X621030Y229870D02*
D03*
D31*
Y204470D02*
D03*
Y179070D02*
D03*
Y153670D02*
D03*
Y128270D02*
D03*
Y102870D02*
D03*
D32*
X46990Y157080D02*
D03*
D33*
Y107080D02*
D03*
D34*
X170180Y105410D02*
D03*
D35*
X155180D02*
D03*
D36*
X194310Y334010D02*
D03*
D37*
X48260Y337580D02*
D03*
D38*
Y322580D02*
D03*
D39*
X427990Y378460D02*
X443230Y363220D01*
Y325844D02*
Y363220D01*
X222027Y296133D02*
X234950Y283210D01*
X273710D01*
X242570Y341630D02*
X250190Y334010D01*
X273710D01*
X194310D02*
X213360D01*
X411480Y128659D02*
Y140410D01*
X389330Y162560D02*
X411480Y140410D01*
Y128659D02*
X414409Y125730D01*
X440700D02*
X491500D01*
X414409D02*
X440700D01*
X292660Y181610D02*
X319330Y208280D01*
X273710Y181610D02*
X292660D01*
X298450Y162560D02*
X319330D01*
X292100Y156210D02*
X298450Y162560D01*
X273710Y156210D02*
X292100D01*
X93550Y257530D02*
X194030D01*
X93270Y257810D02*
X93550Y257530D01*
X92710Y257250D02*
X93270Y257810D01*
X194030Y257530D02*
X194310Y257810D01*
X566420Y267970D02*
X595630Y238760D01*
Y212090D02*
X603250Y204470D01*
X595630Y212090D02*
Y238760D01*
X521970Y219710D02*
X529590D01*
X595630Y153670D01*
X603250Y204470D02*
X621030D01*
X596900Y179070D02*
X621030D01*
X595630Y153670D02*
X621030D01*
X447040Y207010D02*
X497840D01*
X440700Y138430D02*
X491500D01*
X417830Y207010D02*
X447040D01*
X416560Y208280D02*
X417830Y207010D01*
X389330Y208280D02*
X416560D01*
X447040Y194310D02*
X497840D01*
Y219710D02*
X521970D01*
X521410Y220270D02*
Y322580D01*
Y220270D02*
X521970Y219710D01*
X443230D02*
X447040D01*
X491500Y46980D02*
Y113030D01*
Y46980D02*
X492800Y45680D01*
X570230Y102870D02*
X621030D01*
X534670Y138430D02*
X570230Y102870D01*
X491500Y138430D02*
X534670D01*
X297180Y378460D02*
X427990D01*
X24130Y214630D02*
X91440D01*
X242570Y383540D02*
X252055Y393025D01*
X412040Y359410D02*
X412190Y359260D01*
X342190Y326390D02*
X343906Y328106D01*
X155987Y296133D02*
X222027D01*
X213360Y334010D02*
X220980Y341630D01*
X242570Y341630D02*
Y383540D01*
X220980Y341630D02*
Y384810D01*
X238760Y402590D01*
X552450Y257810D02*
X584200Y226060D01*
Y191770D02*
Y226060D01*
Y191770D02*
X596900Y179070D01*
X92710Y332740D02*
Y337580D01*
X91440Y214630D02*
X112435Y193635D01*
X128270Y207720D02*
X128980Y207010D01*
X135067D01*
X194030Y283490D02*
X194310Y283210D01*
X140970Y311150D02*
X155987Y296133D01*
X138430Y283770D02*
X138710Y283490D01*
X519694Y324296D02*
X521410Y322580D01*
X642231Y153670D02*
X643890Y152011D01*
X552450Y257810D02*
Y322580D01*
X566420Y267970D02*
Y321310D01*
X194085Y156435D02*
X194310Y156210D01*
X225425Y192405D02*
X228600D01*
X207565D02*
X225425D01*
X206335Y193635D02*
X207565Y192405D01*
X485140Y402590D02*
X566420Y321310D01*
X238760Y402590D02*
X485140D01*
X252055Y393025D02*
X482005D01*
X552450Y322580D01*
X112435Y193635D02*
X206335D01*
D40*
X21590Y251460D02*
X21776Y251646D01*
X21404Y251274D02*
X21590Y251460D01*
D41*
X273710Y257810D02*
Y283210D01*
Y257810D02*
X342190D01*
X271220Y378460D02*
X297180D01*
X128270Y111268D02*
X134128Y105410D01*
X155180D01*
X412190Y326390D02*
Y359260D01*
X342190Y257810D02*
Y326390D01*
X173990Y378460D02*
X201220D01*
X166370Y370840D02*
X173990Y378460D01*
X166370Y353770D02*
Y370840D01*
X173399Y308610D02*
X194310D01*
X166370Y315639D02*
Y353770D01*
X138430D02*
X166370D01*
Y315639D02*
X173399Y308610D01*
X114300Y311150D02*
X140970D01*
X135067Y207010D02*
X194310D01*
X48260Y299720D02*
X55320Y292660D01*
X48260Y299720D02*
Y322580D01*
X55320Y292660D02*
X92710D01*
Y332740D02*
X114300Y311150D01*
X48260Y337580D02*
X92710D01*
Y362660D01*
X138710Y283490D02*
X194030D01*
X92710Y257250D02*
Y292660D01*
D42*
X21776Y299906D02*
Y365946D01*
X69850Y414020D02*
X490220D01*
X21776Y365946D02*
X69850Y414020D01*
X580390Y279400D02*
X596900Y262890D01*
X580390Y279400D02*
Y323850D01*
X490220Y414020D02*
X580390Y323850D01*
X108770Y226880D02*
X114300Y232410D01*
X58420Y226880D02*
X108770D01*
X114300Y232410D02*
X194310D01*
D43*
X167865Y156435D02*
X168400Y155900D01*
X167640Y156660D02*
X167865Y156435D01*
X127510Y138480D02*
X128270Y137720D01*
X123184Y138480D02*
X127510D01*
X124503Y136760D02*
X124703Y136960D01*
X95250Y136760D02*
X124503D01*
X77580Y202380D02*
X92710Y187250D01*
X58420Y202380D02*
X77580D01*
X155180Y91200D02*
Y105410D01*
X167865Y181385D02*
X194085D01*
X167640Y181160D02*
X167865Y181385D01*
X219567Y156210D02*
X225425Y162068D01*
Y192405D01*
X194085Y181385D02*
X194310Y181610D01*
D44*
X92710Y115867D02*
Y187250D01*
X46990Y107080D02*
X83923D01*
D45*
X482040Y338380D02*
Y359410D01*
Y338380D02*
X496124Y324296D01*
X519694D01*
M02*
