M48
;Layer_Color=9474304
;FILE_FORMAT=4:2
METRIC,LZ
;TYPE=PLATED
T1F00S00C0.70
T2F00S00C0.75
T3F00S00C0.78
T4F00S00C1.02
T5F00S00C1.10
T6F00S00C1.25
%
T01
X001552Y001054
X001702
X000483Y003226
Y003376
T02
X001283Y001377
X002381Y001232
X002126Y000889
X002826
X003081Y001232
X004483Y001263
X004331Y000972
Y000272
X004483Y001963
X004135Y002108
X004122Y002578
Y003264
X00412Y003594
X00482
X004514Y003226
X004628Y002819
X005328
X005214Y003226
X003422Y003264
Y002578
X003435Y002108
X001676Y001812
Y001567
X002012Y003785
X002712
X001384Y003538
X000927Y003627
Y002927
Y002573
X000584Y002269
Y002024
X000927Y001873
X001283Y002077
X001384Y002838
X000216Y002515
Y001815
T03
X001943Y001562
Y001816
Y00207
Y002324
Y002578
Y002832
Y003086
Y00334
X002737
Y003086
Y002832
Y002578
Y002324
Y00207
Y001816
Y001562
T04
X00621Y001029
Y001283
Y001537
Y001791
Y002045
Y002299
T05
X00047Y001071
Y001571
T06
X003785Y000457
Y000686
Y000915
X004928Y000814
Y000585
Y000356
Y001371
X00541
X005423Y000814
Y000585
Y000356
X00541Y0016
Y001829
X004928
Y0016
X004953Y0024
X005182
X004724
M30
