M48
;Layer_Color=9474304
;FILE_FORMAT=4:4
METRIC,LZ
;TYPE=PLATED
T1F00S00C0.7000
T2F00S00C0.7500
T3F00S00C0.7800
T4F00S00C1.0200
T5F00S00C1.1000
T6F00S00C1.2500
%
T01
X0015518Y0010541
X0017018
X0004826Y0032258
Y0033758
T02
X0012827Y0013772
X0023805Y0012319
X0021265Y000889
X0028265
X0030805Y0012319
X0044831Y0012629
X0043307Y0009723
Y0002723
X0044831Y0019629
X0041346Y0021082
X0041219Y0025781
Y0032639
X0041204Y0035941
X0048204
X0045141Y0032258
X0046284Y0028194
X0053284
X0052141Y0032258
X0034219Y0032639
Y0025781
X0034346Y0021082
X0016764Y0018116
Y0015666
X0020122Y0037846
X0027122
X0013843Y0035377
X0009271Y0036266
Y0029266
Y0025725
X0005842Y0022688
Y0020238
X0009271Y0018725
X0012827Y0020772
X0013843Y0028377
X0002159Y0025146
Y0018146
T03
X0019431Y0015621
Y0018161
Y0020701
Y0023241
Y0025781
Y0028321
Y0030861
Y0033401
X0027371
Y0030861
Y0028321
Y0025781
Y0023241
Y0020701
Y0018161
Y0015621
T04
X0062103Y0010287
Y0012827
Y0015367
Y0017907
Y0020447
Y0022987
T05
X0004699Y0010708
Y0015708
T06
X0037846Y0004568
Y0006858
Y0009148
X0049276Y0008136
Y0005846
Y0003556
Y0013708
X0054102
X0054229Y000814
Y000585
Y000356
X0054102Y0015998
Y0018288
X0049276
Y0015998
X004953Y0024003
X005182
X004724
M30
