G04*
G04 #@! TF.GenerationSoftware,Altium Limited,Altium Designer,23.1.1 (15)*
G04*
G04 Layer_Color=65535*
%FSLAX44Y44*%
%MOMM*%
G71*
G04*
G04 #@! TF.SameCoordinates,2212F4CE-4004-4ECA-8CCD-5C7351909A5D*
G04*
G04*
G04 #@! TF.FilePolarity,Positive*
G04*
G01*
G75*
%ADD10C,0.2000*%
%ADD11C,0.1600*%
%ADD12C,0.3000*%
%ADD13C,0.1700*%
%ADD14C,0.1270*%
%ADD15C,0.2540*%
G36*
X162763Y86600D02*
Y124321D01*
X162318Y124766D01*
X160705D01*
X157542Y124137D01*
X154562Y122903D01*
X151881Y121111D01*
X150741Y119971D01*
Y119971D01*
X149930Y119160D01*
X148444Y117674D01*
X146109Y114179D01*
X144500Y110295D01*
X143680Y106173D01*
Y104071D01*
D01*
Y103910D01*
Y102186D01*
X144353Y98805D01*
X145672Y95619D01*
X147588Y92753D01*
X148806Y91533D01*
Y91533D01*
X150930Y89410D01*
X151631Y88708D01*
X153281Y87606D01*
X155115Y86847D01*
X157061Y86460D01*
X158053D01*
D01*
X161308D01*
X162763Y86600D01*
D02*
G37*
G36*
X36990Y137080D02*
X46990Y125080D01*
X56990Y137080D01*
X36990D01*
D02*
G37*
G36*
X67070Y330163D02*
X29349D01*
X28904Y329718D01*
Y328105D01*
X29533Y324942D01*
X30767Y321962D01*
X32559Y319281D01*
X33699Y318141D01*
X33699D01*
X34510Y317330D01*
X35996Y315844D01*
X39491Y313509D01*
X43375Y311900D01*
X47497Y311080D01*
X49599D01*
D01*
X49760D01*
X51484D01*
X54865Y311753D01*
X58051Y313072D01*
X60918Y314988D01*
X62137Y316206D01*
X62137D01*
X64260Y318330D01*
X64962Y319032D01*
X66064Y320681D01*
X66823Y322515D01*
X67210Y324461D01*
Y325453D01*
D01*
Y328708D01*
X67070Y330163D01*
D02*
G37*
D10*
X495260Y103860D02*
G03*
X495260Y103860I-1000J0D01*
G01*
X544790Y103900D02*
G03*
X544790Y103900I-1000J0D01*
G01*
X492260Y114580D02*
G03*
X492260Y114580I-1000J0D01*
G01*
X377960Y23180D02*
G03*
X377960Y23180I-1000J0D01*
G01*
X541700Y238530D02*
G03*
X541700Y238530I-1000J0D01*
G01*
X540520Y114580D02*
G03*
X540520Y114580I-1000J0D01*
G01*
X184660Y334010D02*
G03*
X184660Y334010I-1000J0D01*
G01*
D11*
X64254Y108157D02*
G03*
X64148Y156201I-17264J23984D01*
G01*
X29713Y156117D02*
G03*
X29938Y108006I17277J-23976D01*
G01*
D12*
X161278Y124358D02*
G03*
X161308Y86460I1402J-18948D01*
G01*
X29312Y328678D02*
G03*
X67210Y328708I18948J1402D01*
G01*
X70240Y120830D02*
X62243D01*
X68990Y146832D02*
X60992D01*
X64991Y142833D02*
Y150830D01*
D13*
X183680Y105410D02*
G03*
X183680Y105410I-21000J0D01*
G01*
X69260Y330080D02*
G03*
X69260Y330080I-21000J0D01*
G01*
D14*
X507860Y19460D02*
Y97460D01*
X477860Y19460D02*
X507860D01*
X477860D02*
Y97460D01*
X507860D01*
X527390Y97500D02*
X557390D01*
X527390Y19500D02*
Y97500D01*
Y19500D02*
X557390D01*
Y97500D01*
X477660Y120980D02*
Y198980D01*
X507660D01*
Y120980D02*
Y198980D01*
X477660Y120980D02*
X507660D01*
X363360Y29580D02*
X393360D01*
Y107580D01*
X363360D02*
X393360D01*
X363360Y29580D02*
Y107580D01*
X456300Y224930D02*
X534300D01*
X456300D02*
Y254930D01*
X534300D01*
Y224930D02*
Y254930D01*
X525920Y120980D02*
X555920D01*
Y198980D01*
X525920D02*
X555920D01*
X525920Y120980D02*
Y198980D01*
X12340Y198960D02*
Y204760D01*
Y198960D02*
X21590D01*
X30840D01*
Y204760D01*
X21590Y190960D02*
Y198960D01*
X12340Y233960D02*
X21590D01*
X30840D01*
X12340Y228160D02*
Y233960D01*
X30840Y228160D02*
Y233960D01*
X21590D02*
Y241960D01*
X247550Y123190D02*
X255550D01*
Y132440D02*
X261350D01*
X255550Y113940D02*
X261350D01*
X255550Y123190D02*
Y132440D01*
Y113940D02*
Y123190D01*
X290550D02*
X298550D01*
X284750Y132440D02*
X290550D01*
Y123190D02*
Y132440D01*
Y113940D02*
Y123190D01*
X284750Y113940D02*
X290550D01*
X202260Y342860D02*
X265760D01*
X202260Y147360D02*
X265760D01*
X128270Y190220D02*
Y198220D01*
X137520Y184420D02*
Y190220D01*
X119020Y184420D02*
Y190220D01*
X128270D02*
X137520D01*
X119020D02*
X128270D01*
Y147220D02*
Y155220D01*
X137520D02*
Y161020D01*
X128270Y155220D02*
X137520D01*
X119020D02*
X128270D01*
X119020D02*
Y161020D01*
X92710Y239750D02*
Y247750D01*
X101960Y233950D02*
Y239750D01*
X83460Y233950D02*
Y239750D01*
X92710D02*
X101960D01*
X83460D02*
X92710D01*
Y196750D02*
Y204750D01*
X101960D02*
Y210550D01*
X92710Y204750D02*
X101960D01*
X83460D02*
X92710D01*
X83460D02*
Y210550D01*
X210720Y378460D02*
X218720D01*
Y387710D02*
X224520D01*
X218720Y369210D02*
X224520D01*
X218720Y378460D02*
Y387710D01*
Y369210D02*
Y378460D01*
X253720D02*
X261720D01*
X247920Y387710D02*
X253720D01*
Y378460D02*
Y387710D01*
Y369210D02*
Y378460D01*
X247920Y369210D02*
X253720D01*
X138430Y293270D02*
Y301270D01*
X129180D02*
Y307070D01*
X147680Y301270D02*
Y307070D01*
X129180Y301270D02*
X138430D01*
X147680D01*
X138430Y336270D02*
Y344270D01*
X129180Y330470D02*
Y336270D01*
X138430D01*
X147680D01*
Y330470D02*
Y336270D01*
X92710Y345160D02*
Y353160D01*
X101960Y339360D02*
Y345160D01*
X83460Y339360D02*
Y345160D01*
X92710D02*
X101960D01*
X83460D02*
X92710D01*
Y302160D02*
Y310160D01*
X101960D02*
Y315960D01*
X92710Y310160D02*
X101960D01*
X83460D02*
X92710D01*
X83460D02*
Y315960D01*
X433070Y36730D02*
Y44730D01*
X423820D02*
Y50530D01*
X442320Y44730D02*
Y50530D01*
X423820Y44730D02*
X433070D01*
X442320D01*
X433070Y79730D02*
Y87730D01*
X423820Y73930D02*
Y79730D01*
X433070D01*
X442320D01*
Y73930D02*
Y79730D01*
X448310Y178790D02*
Y186790D01*
X457560Y172990D02*
Y178790D01*
X439060Y172990D02*
Y178790D01*
X448310D02*
X457560D01*
X439060D02*
X448310D01*
Y135790D02*
Y143790D01*
X457560D02*
Y149590D01*
X448310Y143790D02*
X457560D01*
X439060D02*
X448310D01*
X439060D02*
Y149590D01*
X421540Y359410D02*
X429540D01*
Y368660D02*
X435340D01*
X429540Y350160D02*
X435340D01*
X429540Y359410D02*
Y368660D01*
Y350160D02*
Y359410D01*
X464540D02*
X472540D01*
X458740Y368660D02*
X464540D01*
Y359410D02*
Y368660D01*
Y350160D02*
Y359410D01*
X458740Y350160D02*
X464540D01*
X351690Y326390D02*
X359690D01*
Y335640D02*
X365490D01*
X359690Y317140D02*
X365490D01*
X359690Y326390D02*
Y335640D01*
Y317140D02*
Y326390D01*
X394690D02*
X402690D01*
X388890Y335640D02*
X394690D01*
Y326390D02*
Y335640D01*
Y317140D02*
Y326390D01*
X388890Y317140D02*
X394690D01*
X351690Y257810D02*
X359690D01*
Y267060D02*
X365490D01*
X359690Y248560D02*
X365490D01*
X359690Y257810D02*
Y267060D01*
Y248560D02*
Y257810D01*
X394690D02*
X402690D01*
X388890Y267060D02*
X394690D01*
Y257810D02*
Y267060D01*
Y248560D02*
Y257810D01*
X388890Y248560D02*
X394690D01*
X352960Y210820D02*
X360960D01*
Y220070D02*
X366760D01*
X360960Y201570D02*
X366760D01*
X360960Y210820D02*
Y220070D01*
Y201570D02*
Y210820D01*
X395960D02*
X403960D01*
X390160Y220070D02*
X395960D01*
Y210820D02*
Y220070D01*
Y201570D02*
Y210820D01*
X390160Y201570D02*
X395960D01*
X222150Y88900D02*
X230150D01*
Y98150D02*
X235950D01*
X230150Y79650D02*
X235950D01*
X230150Y88900D02*
Y98150D01*
Y79650D02*
Y88900D01*
X265150D02*
X273150D01*
X259350Y98150D02*
X265150D01*
Y88900D02*
Y98150D01*
Y79650D02*
Y88900D01*
X259350Y79650D02*
X265150D01*
X515340Y281940D02*
X523340D01*
X509540Y272690D02*
X515340D01*
X509540Y291190D02*
X515340D01*
Y272690D02*
Y281940D01*
Y291190D01*
X472340Y281940D02*
X480340D01*
Y272690D02*
X486140D01*
X480340D02*
Y281940D01*
Y291190D01*
X486140D01*
X460910Y322580D02*
X468910D01*
Y331830D02*
X474710D01*
X468910Y313330D02*
X474710D01*
X468910Y322580D02*
Y331830D01*
Y313330D02*
Y322580D01*
X503910D02*
X511910D01*
X498110Y331830D02*
X503910D01*
Y322580D02*
Y331830D01*
Y313330D02*
Y322580D01*
X498110Y313330D02*
X503910D01*
D15*
X608530Y87670D02*
X633530D01*
Y245070D01*
X608530D02*
X633530D01*
X608530Y87670D02*
Y245070D01*
Y217170D02*
X633530D01*
X156210Y192590D02*
X180340D01*
X156210Y144330D02*
X180340D01*
Y192590D01*
X156210Y144330D02*
Y192590D01*
X45720Y190950D02*
X69850D01*
X45720Y239210D02*
X69850D01*
X45720Y190950D02*
Y239210D01*
X69850Y190950D02*
Y239210D01*
X189230Y82361D02*
X181233D01*
X185231Y78363D02*
Y86360D01*
X71309Y356630D02*
Y348633D01*
X75307Y352631D02*
X67310D01*
X10801Y262972D02*
Y272968D01*
X15799D01*
X17465Y271302D01*
Y267970D01*
X15799Y266304D01*
X10801D01*
X14133D02*
X17465Y262972D01*
X20798Y271302D02*
X22464Y272968D01*
X25796D01*
X27462Y271302D01*
Y269636D01*
X25796Y267970D01*
X24130D01*
X25796D01*
X27462Y266304D01*
Y264638D01*
X25796Y262972D01*
X22464D01*
X20798Y264638D01*
X37459Y272968D02*
X30794D01*
Y267970D01*
X34127Y269636D01*
X35793D01*
X37459Y267970D01*
Y264638D01*
X35793Y262972D01*
X32461D01*
X30794Y264638D01*
X27393Y86278D02*
Y76282D01*
X34057D01*
X44054Y86278D02*
X37389D01*
Y76282D01*
X44054D01*
X37389Y81280D02*
X40722D01*
X47386Y86278D02*
Y76282D01*
X52385D01*
X54051Y77948D01*
Y84612D01*
X52385Y86278D01*
X47386D01*
X64047Y76282D02*
X57383D01*
X64047Y82946D01*
Y84612D01*
X62381Y86278D01*
X59049D01*
X57383Y84612D01*
X591820Y235639D02*
X588821D01*
X590321D01*
Y228141D01*
X588821Y226642D01*
X587322D01*
X585822Y228141D01*
X594819Y226642D02*
X597818D01*
X596319D01*
Y235639D01*
X594819Y234139D01*
X52988Y255656D02*
X51488Y257155D01*
X48489D01*
X46990Y255656D01*
Y249657D01*
X48489Y248158D01*
X51488D01*
X52988Y249657D01*
X61985Y248158D02*
X55987D01*
X61985Y254156D01*
Y255656D01*
X60486Y257155D01*
X57487D01*
X55987Y255656D01*
X144321Y166140D02*
X142822Y164641D01*
Y161642D01*
X144321Y160142D01*
X150319D01*
X151819Y161642D01*
Y164641D01*
X150319Y166140D01*
X142822Y169139D02*
Y175138D01*
X144321D01*
X150319Y169139D01*
X151819D01*
X484054Y296492D02*
Y305488D01*
X488552D01*
X490052Y303989D01*
Y300990D01*
X488552Y299491D01*
X484054D01*
X487053D02*
X490052Y296492D01*
X493051D02*
X496050D01*
X494550D01*
Y305488D01*
X493051Y303989D01*
X506546Y305488D02*
X500548D01*
Y300990D01*
X503547Y302489D01*
X505047D01*
X506546Y300990D01*
Y297991D01*
X505047Y296492D01*
X502048D01*
X500548Y297991D01*
X337058Y230378D02*
Y239375D01*
X341557D01*
X343056Y237876D01*
Y234876D01*
X341557Y233377D01*
X337058D01*
X340057D02*
X343056Y230378D01*
X346055D02*
X349054D01*
X347555D01*
Y239375D01*
X346055Y237876D01*
X358051Y230378D02*
Y239375D01*
X353553Y234876D01*
X359551D01*
X431218Y160204D02*
X422221D01*
Y164702D01*
X423721Y166202D01*
X426720D01*
X428219Y164702D01*
Y160204D01*
Y163203D02*
X431218Y166202D01*
Y169201D02*
Y172200D01*
Y170700D01*
X422221D01*
X423721Y169201D01*
Y176698D02*
X422221Y178198D01*
Y181197D01*
X423721Y182696D01*
X425220D01*
X426720Y181197D01*
Y179697D01*
Y181197D01*
X428219Y182696D01*
X429719D01*
X431218Y181197D01*
Y178198D01*
X429719Y176698D01*
X285934Y97101D02*
Y106098D01*
X290432D01*
X291932Y104599D01*
Y101600D01*
X290432Y100100D01*
X285934D01*
X288933D02*
X291932Y97101D01*
X294931D02*
X297930D01*
X296430D01*
Y106098D01*
X294931Y104599D01*
X308426Y97101D02*
X302428D01*
X308426Y103099D01*
Y104599D01*
X306927Y106098D01*
X303928D01*
X302428Y104599D01*
X415979Y55023D02*
X406982D01*
Y59522D01*
X408481Y61021D01*
X411480D01*
X412980Y59522D01*
Y55023D01*
Y58022D02*
X415979Y61021D01*
Y64020D02*
Y67019D01*
Y65520D01*
X406982D01*
X408481Y64020D01*
X415979Y71518D02*
Y74517D01*
Y73017D01*
X406982D01*
X408481Y71518D01*
X240214Y59001D02*
Y67998D01*
X244712D01*
X246212Y66499D01*
Y63500D01*
X244712Y62000D01*
X240214D01*
X243213D02*
X246212Y59001D01*
X249211D02*
X252210D01*
X250710D01*
Y67998D01*
X249211Y66499D01*
X256708D02*
X258208Y67998D01*
X261207D01*
X262706Y66499D01*
Y60501D01*
X261207Y59001D01*
X258208D01*
X256708Y60501D01*
Y66499D01*
X113719Y160142D02*
X104721D01*
Y164641D01*
X106221Y166140D01*
X109220D01*
X110719Y164641D01*
Y160142D01*
Y163141D02*
X113719Y166140D01*
X112219Y169139D02*
X113719Y170639D01*
Y173638D01*
X112219Y175138D01*
X106221D01*
X104721Y173638D01*
Y170639D01*
X106221Y169139D01*
X107720D01*
X109220Y170639D01*
Y175138D01*
X120069Y222372D02*
X111072D01*
Y226871D01*
X112571Y228370D01*
X115570D01*
X117070Y226871D01*
Y222372D01*
Y225371D02*
X120069Y228370D01*
X112571Y231369D02*
X111072Y232869D01*
Y235868D01*
X112571Y237368D01*
X114071D01*
X115570Y235868D01*
X117070Y237368D01*
X118569D01*
X120069Y235868D01*
Y232869D01*
X118569Y231369D01*
X117070D01*
X115570Y232869D01*
X114071Y231369D01*
X112571D01*
X115570Y232869D02*
Y235868D01*
X118799Y327782D02*
X109802D01*
Y332281D01*
X111301Y333781D01*
X114300D01*
X115800Y332281D01*
Y327782D01*
Y330782D02*
X118799Y333781D01*
X109802Y336780D02*
Y342778D01*
X111301D01*
X117299Y336780D01*
X118799D01*
X454782Y334591D02*
Y343588D01*
X459281D01*
X460780Y342089D01*
Y339090D01*
X459281Y337590D01*
X454782D01*
X457781D02*
X460780Y334591D01*
X469778Y343588D02*
X466778Y342089D01*
X463779Y339090D01*
Y336091D01*
X465279Y334591D01*
X468278D01*
X469778Y336091D01*
Y337590D01*
X468278Y339090D01*
X463779D01*
X444622Y372691D02*
Y381688D01*
X449121D01*
X450620Y380189D01*
Y377190D01*
X449121Y375690D01*
X444622D01*
X447621D02*
X450620Y372691D01*
X459618Y381688D02*
X453619D01*
Y377190D01*
X456618Y378689D01*
X458118D01*
X459618Y377190D01*
Y374191D01*
X458118Y372691D01*
X455119D01*
X453619Y374191D01*
X163249Y313812D02*
X154251D01*
Y318311D01*
X155751Y319811D01*
X158750D01*
X160250Y318311D01*
Y313812D01*
Y316812D02*
X163249Y319811D01*
Y327308D02*
X154251D01*
X158750Y322809D01*
Y328808D01*
X202052Y395551D02*
Y404548D01*
X206551D01*
X208050Y403049D01*
Y400050D01*
X206551Y398550D01*
X202052D01*
X205051D02*
X208050Y395551D01*
X211049Y403049D02*
X212549Y404548D01*
X215548D01*
X217048Y403049D01*
Y401549D01*
X215548Y400050D01*
X214049D01*
X215548D01*
X217048Y398550D01*
Y397051D01*
X215548Y395551D01*
X212549D01*
X211049Y397051D01*
X372232Y273631D02*
Y282628D01*
X376731D01*
X378231Y281129D01*
Y278130D01*
X376731Y276630D01*
X372232D01*
X375232D02*
X378231Y273631D01*
X387228D02*
X381230D01*
X387228Y279629D01*
Y281129D01*
X385728Y282628D01*
X382729D01*
X381230Y281129D01*
X335788Y345948D02*
Y354945D01*
X340286D01*
X341786Y353446D01*
Y350447D01*
X340286Y348947D01*
X335788D01*
X338787D02*
X341786Y345948D01*
X344785D02*
X347784D01*
X346285D01*
Y354945D01*
X344785Y353446D01*
X184150Y362819D02*
Y355322D01*
X185650Y353822D01*
X188648D01*
X190148Y355322D01*
Y362819D01*
X193147Y353822D02*
X196146D01*
X194647D01*
Y362819D01*
X193147Y361320D01*
X569419Y195350D02*
X563421D01*
X561922Y193851D01*
Y190852D01*
X563421Y189352D01*
X569419D01*
X570919Y190852D01*
Y193851D01*
X567920Y192351D02*
X570919Y195350D01*
Y193851D02*
X569419Y195350D01*
X561922Y204348D02*
X563421Y201348D01*
X566420Y198349D01*
X569419D01*
X570919Y199849D01*
Y202848D01*
X569419Y204348D01*
X567920D01*
X566420Y202848D01*
Y198349D01*
X475980Y263701D02*
Y269699D01*
X474481Y271199D01*
X471482D01*
X469982Y269699D01*
Y263701D01*
X471482Y262201D01*
X474481D01*
X472981Y265201D02*
X475980Y262201D01*
X474481D02*
X475980Y263701D01*
X484978Y271199D02*
X478979D01*
Y266700D01*
X481978Y268200D01*
X483478D01*
X484978Y266700D01*
Y263701D01*
X483478Y262201D01*
X480479D01*
X478979Y263701D01*
X352249Y86171D02*
X346251D01*
X344751Y84671D01*
Y81672D01*
X346251Y80173D01*
X352249D01*
X353749Y81672D01*
Y84671D01*
X350750Y83172D02*
X353749Y86171D01*
Y84671D02*
X352249Y86171D01*
X353749Y93668D02*
X344751D01*
X349250Y89170D01*
Y95168D01*
X469089Y145861D02*
X463091D01*
X461591Y144361D01*
Y141362D01*
X463091Y139862D01*
X469089D01*
X470588Y141362D01*
Y144361D01*
X467589Y142861D02*
X470588Y145861D01*
Y144361D02*
X469089Y145861D01*
X463091Y148860D02*
X461591Y150359D01*
Y153358D01*
X463091Y154858D01*
X464590D01*
X466090Y153358D01*
Y151859D01*
Y153358D01*
X467589Y154858D01*
X469089D01*
X470588Y153358D01*
Y150359D01*
X469089Y148860D01*
X571959Y40410D02*
X565961D01*
X564462Y38911D01*
Y35912D01*
X565961Y34412D01*
X571959D01*
X573459Y35912D01*
Y38911D01*
X570460Y37411D02*
X573459Y40410D01*
Y38911D02*
X571959Y40410D01*
X573459Y49408D02*
Y43410D01*
X567461Y49408D01*
X565961D01*
X564462Y47908D01*
Y44909D01*
X565961Y43410D01*
X466549Y34290D02*
X460551D01*
X459052Y32791D01*
Y29792D01*
X460551Y28292D01*
X466549D01*
X468049Y29792D01*
Y32791D01*
X465050Y31291D02*
X468049Y34290D01*
Y32791D02*
X466549Y34290D01*
X468049Y37289D02*
Y40288D01*
Y38788D01*
X459052D01*
X460551Y37289D01*
X46761Y368759D02*
X45261Y370258D01*
X42262D01*
X40762Y368759D01*
Y362761D01*
X42262Y361261D01*
X45261D01*
X46761Y362761D01*
X54258Y361261D02*
Y370258D01*
X49759Y365760D01*
X55758D01*
X124230Y95709D02*
X122731Y97208D01*
X119732D01*
X118232Y95709D01*
Y89711D01*
X119732Y88211D01*
X122731D01*
X124230Y89711D01*
X127229Y95709D02*
X128729Y97208D01*
X131728D01*
X133228Y95709D01*
Y94209D01*
X131728Y92710D01*
X130229D01*
X131728D01*
X133228Y91210D01*
Y89711D01*
X131728Y88211D01*
X128729D01*
X127229Y89711D01*
M02*
