G04*
G04 #@! TF.GenerationSoftware,Altium Limited,Altium Designer,23.1.1 (15)*
G04*
G04 Layer_Color=16711935*
%FSLAX44Y44*%
%MOMM*%
G71*
G04*
G04 #@! TF.SameCoordinates,2212F4CE-4004-4ECA-8CCD-5C7351909A5D*
G04*
G04*
G04 #@! TF.FilePolarity,Negative*
G04*
G01*
G75*
%ADD16R,2.4892X1.9812*%
%ADD17O,2.4892X1.9812*%
%ADD18R,1.9812X2.4892*%
%ADD19O,1.9812X2.4892*%
%ADD20R,1.9016X1.9016*%
%ADD21C,1.8796*%
%ADD22C,1.6002*%
%ADD23O,3.2032X2.6032*%
G04:AMPARAMS|DCode=24|XSize=2.6032mm|YSize=3.2032mm|CornerRadius=0.7016mm|HoleSize=0mm|Usage=FLASHONLY|Rotation=270.000|XOffset=0mm|YOffset=0mm|HoleType=Round|Shape=RoundedRectangle|*
%AMROUNDEDRECTD24*
21,1,2.6032,1.8000,0,0,270.0*
21,1,1.2000,3.2032,0,0,270.0*
1,1,1.4032,-0.9000,-0.6000*
1,1,1.4032,-0.9000,0.6000*
1,1,1.4032,0.9000,0.6000*
1,1,1.4032,0.9000,-0.6000*
%
%ADD24ROUNDEDRECTD24*%
G04:AMPARAMS|DCode=25|XSize=1.3032mm|YSize=2.2352mm|CornerRadius=0.2116mm|HoleSize=0mm|Usage=FLASHONLY|Rotation=180.000|XOffset=0mm|YOffset=0mm|HoleType=Round|Shape=RoundedRectangle|*
%AMROUNDEDRECTD25*
21,1,1.3032,1.8120,0,0,180.0*
21,1,0.8800,2.2352,0,0,180.0*
1,1,0.4232,-0.4400,0.9060*
1,1,0.4232,0.4400,0.9060*
1,1,0.4232,0.4400,-0.9060*
1,1,0.4232,-0.4400,-0.9060*
%
%ADD25ROUNDEDRECTD25*%
%ADD26O,1.3032X2.2352*%
%ADD27R,1.6010X1.6010*%
%ADD28C,1.6010*%
G04:AMPARAMS|DCode=29|XSize=1.3032mm|YSize=2.2352mm|CornerRadius=0.2116mm|HoleSize=0mm|Usage=FLASHONLY|Rotation=270.000|XOffset=0mm|YOffset=0mm|HoleType=Round|Shape=RoundedRectangle|*
%AMROUNDEDRECTD29*
21,1,1.3032,1.8120,0,0,270.0*
21,1,0.8800,2.2352,0,0,270.0*
1,1,0.4232,-0.9060,-0.4400*
1,1,0.4232,-0.9060,0.4400*
1,1,0.4232,0.9060,0.4400*
1,1,0.4232,0.9060,-0.4400*
%
%ADD29ROUNDEDRECTD29*%
%ADD30O,2.2352X1.3032*%
D16*
X492760Y81360D02*
D03*
X542290Y81400D02*
D03*
X492760Y137080D02*
D03*
X378460Y45680D02*
D03*
X541020Y137080D02*
D03*
D17*
X492760Y58460D02*
D03*
Y35560D02*
D03*
X542290Y35600D02*
D03*
Y58500D02*
D03*
X492760Y159980D02*
D03*
Y182880D02*
D03*
X378460Y91480D02*
D03*
Y68580D02*
D03*
X541020Y182880D02*
D03*
Y159980D02*
D03*
D18*
X518200Y240030D02*
D03*
D19*
X495300D02*
D03*
X472400D02*
D03*
D20*
X621030Y229870D02*
D03*
D21*
Y204470D02*
D03*
Y179070D02*
D03*
Y153670D02*
D03*
Y128270D02*
D03*
Y102870D02*
D03*
D22*
X167640Y156660D02*
D03*
Y181160D02*
D03*
X58420Y202380D02*
D03*
Y226880D02*
D03*
X21590Y181460D02*
D03*
Y251460D02*
D03*
X238050Y123190D02*
D03*
X308050D02*
D03*
X128270Y207720D02*
D03*
Y137720D02*
D03*
X92710Y257250D02*
D03*
Y187250D02*
D03*
X201220Y378460D02*
D03*
X271220D02*
D03*
X138430Y283770D02*
D03*
Y353770D02*
D03*
X92710Y362660D02*
D03*
Y292660D02*
D03*
X433070Y27230D02*
D03*
Y97230D02*
D03*
X448310Y196290D02*
D03*
Y126290D02*
D03*
X412040Y359410D02*
D03*
X482040D02*
D03*
X342190Y326390D02*
D03*
X412190D02*
D03*
X342190Y257810D02*
D03*
X412190D02*
D03*
X343460Y210820D02*
D03*
X413460D02*
D03*
X212650Y88900D02*
D03*
X282650D02*
D03*
X532840Y281940D02*
D03*
X462840D02*
D03*
X451410Y322580D02*
D03*
X521410D02*
D03*
D23*
X46990Y157080D02*
D03*
D24*
Y107080D02*
D03*
D25*
X170180Y105410D02*
D03*
D26*
X155180D02*
D03*
D27*
X194310Y334010D02*
D03*
D28*
Y308610D02*
D03*
Y283210D02*
D03*
Y257810D02*
D03*
Y232410D02*
D03*
Y207010D02*
D03*
Y181610D02*
D03*
Y156210D02*
D03*
X273710D02*
D03*
Y181610D02*
D03*
Y207010D02*
D03*
Y232410D02*
D03*
Y257810D02*
D03*
Y283210D02*
D03*
Y308610D02*
D03*
Y334010D02*
D03*
D29*
X48260Y337580D02*
D03*
D30*
Y322580D02*
D03*
M02*
