G04*
G04 #@! TF.GenerationSoftware,Altium Limited,Altium Designer,23.1.1 (15)*
G04*
G04 Layer_Physical_Order=1*
G04 Layer_Color=255*
%FSLAX44Y44*%
%MOMM*%
G71*
G04*
G04 #@! TF.SameCoordinates,2212F4CE-4004-4ECA-8CCD-5C7351909A5D*
G04*
G04*
G04 #@! TF.FilePolarity,Positive*
G04*
G01*
G75*
%ADD31R,2.2860X1.7780*%
%ADD32O,2.2860X1.7780*%
%ADD33R,1.7780X2.2860*%
%ADD34O,1.7780X2.2860*%
%ADD35R,1.8000X1.8000*%
%ADD36C,1.7780*%
%ADD37C,1.3970*%
%ADD38O,3.0000X2.4000*%
G04:AMPARAMS|DCode=39|XSize=2.4mm|YSize=3mm|CornerRadius=0.6mm|HoleSize=0mm|Usage=FLASHONLY|Rotation=270.000|XOffset=0mm|YOffset=0mm|HoleType=Round|Shape=RoundedRectangle|*
%AMROUNDEDRECTD39*
21,1,2.4000,1.8000,0,0,270.0*
21,1,1.2000,3.0000,0,0,270.0*
1,1,1.2000,-0.9000,-0.6000*
1,1,1.2000,-0.9000,0.6000*
1,1,1.2000,0.9000,0.6000*
1,1,1.2000,0.9000,-0.6000*
%
%ADD39ROUNDEDRECTD39*%
G04:AMPARAMS|DCode=40|XSize=1.1mm|YSize=2.032mm|CornerRadius=0.11mm|HoleSize=0mm|Usage=FLASHONLY|Rotation=180.000|XOffset=0mm|YOffset=0mm|HoleType=Round|Shape=RoundedRectangle|*
%AMROUNDEDRECTD40*
21,1,1.1000,1.8120,0,0,180.0*
21,1,0.8800,2.0320,0,0,180.0*
1,1,0.2200,-0.4400,0.9060*
1,1,0.2200,0.4400,0.9060*
1,1,0.2200,0.4400,-0.9060*
1,1,0.2200,-0.4400,-0.9060*
%
%ADD40ROUNDEDRECTD40*%
%ADD41O,1.1000X2.0320*%
%ADD42R,1.3970X1.3970*%
G04:AMPARAMS|DCode=43|XSize=1.1mm|YSize=2.032mm|CornerRadius=0.11mm|HoleSize=0mm|Usage=FLASHONLY|Rotation=270.000|XOffset=0mm|YOffset=0mm|HoleType=Round|Shape=RoundedRectangle|*
%AMROUNDEDRECTD43*
21,1,1.1000,1.8120,0,0,270.0*
21,1,0.8800,2.0320,0,0,270.0*
1,1,0.2200,-0.9060,-0.4400*
1,1,0.2200,-0.9060,0.4400*
1,1,0.2200,0.9060,0.4400*
1,1,0.2200,0.9060,-0.4400*
%
%ADD43ROUNDEDRECTD43*%
%ADD44O,2.0320X1.1000*%
D31*
X492760Y81360D02*
D03*
X542290Y81400D02*
D03*
X492760Y137080D02*
D03*
X378460Y45680D02*
D03*
X541020Y137080D02*
D03*
D32*
X492760Y58460D02*
D03*
Y35560D02*
D03*
X542290Y35600D02*
D03*
Y58500D02*
D03*
X492760Y159980D02*
D03*
Y182880D02*
D03*
X378460Y91480D02*
D03*
Y68580D02*
D03*
X541020Y182880D02*
D03*
Y159980D02*
D03*
D33*
X518200Y240030D02*
D03*
D34*
X495300D02*
D03*
X472400D02*
D03*
D35*
X621030Y229870D02*
D03*
D36*
Y204470D02*
D03*
Y179070D02*
D03*
Y153670D02*
D03*
Y128270D02*
D03*
Y102870D02*
D03*
D37*
X167640Y156660D02*
D03*
Y181160D02*
D03*
X58420Y202380D02*
D03*
Y226880D02*
D03*
X21590Y181460D02*
D03*
Y251460D02*
D03*
X238050Y123190D02*
D03*
X308050D02*
D03*
X194310Y308610D02*
D03*
Y283210D02*
D03*
Y257810D02*
D03*
Y232410D02*
D03*
Y207010D02*
D03*
Y181610D02*
D03*
Y156210D02*
D03*
X273710D02*
D03*
Y181610D02*
D03*
Y207010D02*
D03*
Y232410D02*
D03*
Y257810D02*
D03*
Y283210D02*
D03*
Y308610D02*
D03*
Y334010D02*
D03*
X128270Y207720D02*
D03*
Y137720D02*
D03*
X92710Y257250D02*
D03*
Y187250D02*
D03*
X201220Y378460D02*
D03*
X271220D02*
D03*
X138430Y283770D02*
D03*
Y353770D02*
D03*
X92710Y362660D02*
D03*
Y292660D02*
D03*
X433070Y27230D02*
D03*
Y97230D02*
D03*
X448310Y196290D02*
D03*
Y126290D02*
D03*
X412040Y359410D02*
D03*
X482040D02*
D03*
X342190Y326390D02*
D03*
X412190D02*
D03*
X342190Y257810D02*
D03*
X412190D02*
D03*
X343460Y210820D02*
D03*
X413460D02*
D03*
X212650Y88900D02*
D03*
X282650D02*
D03*
X532840Y281940D02*
D03*
X462840D02*
D03*
X451410Y322580D02*
D03*
X521410D02*
D03*
D38*
X46990Y157080D02*
D03*
D39*
Y107080D02*
D03*
D40*
X170180Y105410D02*
D03*
D41*
X155180D02*
D03*
D42*
X194310Y334010D02*
D03*
D43*
X48260Y337580D02*
D03*
D44*
Y322580D02*
D03*
M02*
