M48
;Layer_Color=9474304
;FILE_FORMAT=4:4
METRIC,LZ
;TYPE=PLATED
T1F00S00C0.7000
T2F00S00C0.7500
T3F00S00C0.7800
T4F00S00C1.0000
T5F00S00C1.0200
T6F00S00C1.1000
%
T01
X0015518Y0010541
X0017018
X0004826Y0032258
Y0033758
T02
X0012827Y0013772
X0016764Y0015666
Y0018116
X0031933Y0016256
X0031933Y0020828
Y0025781
X0038933
Y0020828
X0038933Y0016256
X0041219Y0032639
X0041204Y0035941
X0048204
X0045141Y0032258
X0052141
X0034219Y0032639
X0027122Y0037846
X0020122
X0013843Y0035377
X0009271Y0036266
Y0029266
Y0025725
X0005842Y0022688
Y0020238
X0009271Y0018725
X0012827Y0020772
X0013843Y0028377
X0002159Y0025146
Y0018146
T03
X0019431Y0015621
Y0018161
Y0020701
Y0023241
Y0025781
Y0028321
Y0030861
Y0033401
X0027371
Y0030861
Y0028321
Y0025781
Y0023241
Y0020701
Y0018161
Y0015621
T04
X0044577Y0010033
Y0012733
X0049657
Y0010033
Y0015433
X0049735Y0017918
Y0020618
Y0023318
X0044655
Y0020618
Y0017918
X0044577Y0015433
T05
X0062103Y0010287
Y0012827
Y0015367
Y0017907
Y0020447
Y0022987
T06
X0004699Y0010708
Y0015708
M30
