G04*
G04 #@! TF.GenerationSoftware,Altium Limited,Altium Designer,23.1.1 (15)*
G04*
G04 Layer_Physical_Order=1*
G04 Layer_Color=255*
%FSLAX44Y44*%
%MOMM*%
G71*
G04*
G04 #@! TF.SameCoordinates,68198025-1F79-426E-A44B-EFEC00C58351*
G04*
G04*
G04 #@! TF.FilePolarity,Positive*
G04*
G01*
G75*
%ADD29C,1.8000*%
%ADD30R,1.8000X1.8000*%
%ADD31C,1.3970*%
%ADD32R,1.8000X1.8000*%
%ADD33C,1.7780*%
%ADD34O,3.0000X2.4000*%
G04:AMPARAMS|DCode=35|XSize=2.4mm|YSize=3mm|CornerRadius=0.6mm|HoleSize=0mm|Usage=FLASHONLY|Rotation=270.000|XOffset=0mm|YOffset=0mm|HoleType=Round|Shape=RoundedRectangle|*
%AMROUNDEDRECTD35*
21,1,2.4000,1.8000,0,0,270.0*
21,1,1.2000,3.0000,0,0,270.0*
1,1,1.2000,-0.9000,-0.6000*
1,1,1.2000,-0.9000,0.6000*
1,1,1.2000,0.9000,0.6000*
1,1,1.2000,0.9000,-0.6000*
%
%ADD35ROUNDEDRECTD35*%
G04:AMPARAMS|DCode=36|XSize=1.1mm|YSize=2.032mm|CornerRadius=0.11mm|HoleSize=0mm|Usage=FLASHONLY|Rotation=180.000|XOffset=0mm|YOffset=0mm|HoleType=Round|Shape=RoundedRectangle|*
%AMROUNDEDRECTD36*
21,1,1.1000,1.8120,0,0,180.0*
21,1,0.8800,2.0320,0,0,180.0*
1,1,0.2200,-0.4400,0.9060*
1,1,0.2200,0.4400,0.9060*
1,1,0.2200,0.4400,-0.9060*
1,1,0.2200,-0.4400,-0.9060*
%
%ADD36ROUNDEDRECTD36*%
%ADD37O,1.1000X2.0320*%
%ADD38R,1.3970X1.3970*%
G04:AMPARAMS|DCode=39|XSize=1.1mm|YSize=2.032mm|CornerRadius=0.11mm|HoleSize=0mm|Usage=FLASHONLY|Rotation=270.000|XOffset=0mm|YOffset=0mm|HoleType=Round|Shape=RoundedRectangle|*
%AMROUNDEDRECTD39*
21,1,1.1000,1.8120,0,0,270.0*
21,1,0.8800,2.0320,0,0,270.0*
1,1,0.2200,-0.9060,-0.4400*
1,1,0.2200,-0.9060,0.4400*
1,1,0.2200,0.9060,0.4400*
1,1,0.2200,0.9060,-0.4400*
%
%ADD39ROUNDEDRECTD39*%
%ADD40O,2.0320X1.1000*%
D29*
X497350Y206180D02*
D03*
Y233180D02*
D03*
X496570Y127330D02*
D03*
Y100330D02*
D03*
X446550Y206180D02*
D03*
Y233180D02*
D03*
X445770Y127330D02*
D03*
Y100330D02*
D03*
D30*
X497350Y179180D02*
D03*
X496570Y154330D02*
D03*
X446550Y179180D02*
D03*
X445770Y154330D02*
D03*
D31*
X319330Y162560D02*
D03*
X389330D02*
D03*
X389330Y208280D02*
D03*
X319330D02*
D03*
X167640Y156660D02*
D03*
Y181160D02*
D03*
X58420Y202380D02*
D03*
Y226880D02*
D03*
X21590Y181460D02*
D03*
Y251460D02*
D03*
X194310Y308610D02*
D03*
Y283210D02*
D03*
Y257810D02*
D03*
Y232410D02*
D03*
Y207010D02*
D03*
Y181610D02*
D03*
Y156210D02*
D03*
X273710D02*
D03*
Y181610D02*
D03*
Y207010D02*
D03*
Y232410D02*
D03*
Y257810D02*
D03*
Y283210D02*
D03*
Y308610D02*
D03*
Y334010D02*
D03*
X128270Y207720D02*
D03*
Y137720D02*
D03*
X92710Y257250D02*
D03*
Y187250D02*
D03*
X201220Y378460D02*
D03*
X271220D02*
D03*
X138430Y283770D02*
D03*
Y353770D02*
D03*
X92710Y362660D02*
D03*
Y292660D02*
D03*
X412040Y359410D02*
D03*
X482040D02*
D03*
X342190Y326390D02*
D03*
X412190D02*
D03*
X319330Y257810D02*
D03*
X389330D02*
D03*
X451410Y322580D02*
D03*
X521410D02*
D03*
D32*
X621030Y229870D02*
D03*
D33*
Y204470D02*
D03*
Y179070D02*
D03*
Y153670D02*
D03*
Y128270D02*
D03*
Y102870D02*
D03*
D34*
X46990Y157080D02*
D03*
D35*
Y107080D02*
D03*
D36*
X170180Y105410D02*
D03*
D37*
X155180D02*
D03*
D38*
X194310Y334010D02*
D03*
D39*
X48260Y337580D02*
D03*
D40*
Y322580D02*
D03*
M02*
