G04*
G04 #@! TF.GenerationSoftware,Altium Limited,Altium Designer,23.1.1 (15)*
G04*
G04 Layer_Physical_Order=2*
G04 Layer_Color=16711680*
%FSLAX44Y44*%
%MOMM*%
G71*
G04*
G04 #@! TF.SameCoordinates,A954D82D-2BD1-4109-9E4F-43DCBC9F2CE2*
G04*
G04*
G04 #@! TF.FilePolarity,Positive*
G04*
G01*
G75*
%ADD10C,1.2000*%
%ADD11C,1.5000*%
%ADD12C,1.8000*%
%ADD13C,0.5000*%
%ADD14C,1.4000*%
%ADD15C,1.0000*%
%ADD16C,0.8000*%
%ADD17C,1.3000*%
%ADD18C,0.2540*%
%ADD19R,2.2860X1.7780*%
%ADD20O,2.2860X1.7780*%
%ADD21R,1.7780X2.2860*%
%ADD22O,1.7780X2.2860*%
%ADD23R,1.8000X1.8000*%
%ADD24C,1.7780*%
%ADD25C,1.3970*%
%ADD26O,3.0000X2.4000*%
G04:AMPARAMS|DCode=27|XSize=2.4mm|YSize=3mm|CornerRadius=0.6mm|HoleSize=0mm|Usage=FLASHONLY|Rotation=270.000|XOffset=0mm|YOffset=0mm|HoleType=Round|Shape=RoundedRectangle|*
%AMROUNDEDRECTD27*
21,1,2.4000,1.8000,0,0,270.0*
21,1,1.2000,3.0000,0,0,270.0*
1,1,1.2000,-0.9000,-0.6000*
1,1,1.2000,-0.9000,0.6000*
1,1,1.2000,0.9000,0.6000*
1,1,1.2000,0.9000,-0.6000*
%
%ADD27ROUNDEDRECTD27*%
G04:AMPARAMS|DCode=28|XSize=1.1mm|YSize=2.032mm|CornerRadius=0.11mm|HoleSize=0mm|Usage=FLASHONLY|Rotation=180.000|XOffset=0mm|YOffset=0mm|HoleType=Round|Shape=RoundedRectangle|*
%AMROUNDEDRECTD28*
21,1,1.1000,1.8120,0,0,180.0*
21,1,0.8800,2.0320,0,0,180.0*
1,1,0.2200,-0.4400,0.9060*
1,1,0.2200,0.4400,0.9060*
1,1,0.2200,0.4400,-0.9060*
1,1,0.2200,-0.4400,-0.9060*
%
%ADD28ROUNDEDRECTD28*%
%ADD29O,1.1000X2.0320*%
%ADD30R,1.3970X1.3970*%
G04:AMPARAMS|DCode=31|XSize=1.1mm|YSize=2.032mm|CornerRadius=0.11mm|HoleSize=0mm|Usage=FLASHONLY|Rotation=270.000|XOffset=0mm|YOffset=0mm|HoleType=Round|Shape=RoundedRectangle|*
%AMROUNDEDRECTD31*
21,1,1.1000,1.8120,0,0,270.0*
21,1,0.8800,2.0320,0,0,270.0*
1,1,0.2200,-0.9060,-0.4400*
1,1,0.2200,-0.9060,0.4400*
1,1,0.2200,0.9060,0.4400*
1,1,0.2200,0.9060,-0.4400*
%
%ADD31ROUNDEDRECTD31*%
%ADD32O,2.0320X1.1000*%
D10*
X273710Y257810D02*
Y283210D01*
Y257810D02*
X342190D01*
X271220Y378460D02*
X297180D01*
X128270Y111268D02*
X134128Y105410D01*
X155180D01*
X128270Y111268D02*
Y137720D01*
X372883Y326390D02*
X412190D01*
Y359260D01*
X316230Y210820D02*
X343460D01*
X342190Y257810D02*
Y326390D01*
X250190Y334010D02*
X273710D01*
Y308610D02*
X298450D01*
X173990Y378460D02*
X201220D01*
X166370Y370840D02*
X173990Y378460D01*
X166370Y353770D02*
Y370840D01*
X194310Y334010D02*
X213360D01*
X173399Y308610D02*
X194310D01*
X166370Y315639D02*
Y353770D01*
X138430D02*
X166370D01*
Y315639D02*
X173399Y308610D01*
X114300Y311150D02*
X140970D01*
X135067Y207010D02*
X194310D01*
X48260Y299720D02*
X55320Y292660D01*
X48260Y299720D02*
Y322580D01*
X55320Y292660D02*
X92710D01*
Y332740D02*
X114300Y311150D01*
X48260Y337580D02*
X92710D01*
Y362660D01*
X138710Y283490D02*
X194030D01*
X92990Y257530D02*
X194030D01*
X92710Y257250D02*
Y292660D01*
X251460Y156210D02*
X273710D01*
X238050Y142800D02*
X251460Y156210D01*
X273710Y181610D02*
X306951D01*
X294640Y147320D02*
X448310D01*
X309880Y204470D02*
X316230Y210820D01*
X306951Y181610D02*
X309880Y184539D01*
Y204470D01*
X273710Y207010D02*
Y232410D01*
X242570Y88900D02*
X285790Y45680D01*
X189230Y83820D02*
X194310Y88900D01*
X212650D01*
X242570D01*
X238050Y123190D02*
Y142800D01*
X252730Y105410D02*
X294640Y147320D01*
D11*
X379850Y44290D02*
X395073D01*
X403860Y35503D01*
Y15137D02*
Y35503D01*
X574080Y11470D02*
Y59730D01*
X403860Y15137D02*
X412647Y6350D01*
X568960D01*
X574080Y11470D01*
X378460Y45680D02*
X379850Y44290D01*
X303570Y91480D02*
X378460D01*
X285790Y45680D02*
X378460D01*
X433070Y27230D02*
Y40640D01*
X405130Y68580D02*
X433070Y40640D01*
X378460Y68580D02*
X405130D01*
X542290Y58500D02*
Y59730D01*
X492760Y181650D02*
X496052D01*
X497282Y182880D01*
X541020D01*
X541675Y183535D01*
X462840Y196290D02*
X476948Y182182D01*
X492228D01*
X492760Y181650D01*
X448310Y196290D02*
X462840D01*
X494768Y182934D02*
Y239498D01*
X493484Y181650D02*
X494768Y182934D01*
X492760Y181650D02*
X493484D01*
X494768Y239498D02*
X495300Y240030D01*
X462240Y161250D02*
X474666D01*
X476634Y159282D01*
X492228D01*
X492760Y158750D01*
X448310Y147320D02*
X462240Y161250D01*
X92710Y115867D02*
Y136760D01*
Y148590D01*
X453390Y59690D02*
X492760D01*
X433070Y80010D02*
X453390Y59690D01*
X542290Y59730D02*
X574080D01*
X467320Y36790D02*
X492760D01*
X457760Y27230D02*
X467320Y36790D01*
X542290Y82630D02*
X576660D01*
X596900Y102870D02*
X621030D01*
X576660Y82630D02*
X596900Y102870D01*
X433070Y27230D02*
X457760D01*
X433070Y80010D02*
Y97230D01*
X21590Y160009D02*
X24519Y157080D01*
X21590Y160009D02*
Y181460D01*
X24519Y157080D02*
X46990D01*
X92710Y148590D02*
Y187250D01*
X83923Y107080D02*
X92710Y115867D01*
X46990Y107080D02*
X83923D01*
X591860Y133310D02*
X596900Y128270D01*
X621030D01*
X596900Y153670D02*
X621030D01*
X596900Y179070D02*
X621030D01*
X603250Y204470D02*
X621030D01*
Y229870D02*
Y262890D01*
X447645Y111805D02*
Y125625D01*
X448310Y126290D02*
Y147320D01*
X574080Y59730D02*
X617260D01*
X433070Y97230D02*
X447645Y111805D01*
X617260Y59730D02*
X643890Y86360D01*
X282650Y88900D02*
X300990D01*
X308050Y95960D02*
Y123190D01*
X303570Y91480D02*
X308050Y95960D01*
D12*
X492760Y35560D02*
X539860D01*
X492760Y81360D02*
X539860D01*
X495190Y136970D02*
X501350Y130810D01*
X532430D01*
X538590Y136970D01*
X540910D01*
X541020Y137080D01*
X492760D02*
X492870Y136970D01*
X495190D01*
D13*
X541020Y182880D02*
X541675Y183535D01*
Y183535D01*
X567690Y160020D02*
Y205660D01*
X533320Y240030D02*
X567690Y205660D01*
X518200Y240030D02*
X533320D01*
X427990Y378460D02*
X434340Y372110D01*
X297180Y378460D02*
X427990D01*
X26670Y214630D02*
X91440D01*
X242570Y383540D02*
X252055Y393025D01*
X412040Y359410D02*
X412190Y359260D01*
X435804Y324044D02*
X437269Y322580D01*
X434340Y325509D02*
Y372110D01*
X342190Y326390D02*
X343906Y328106D01*
X360858Y338415D02*
X372883Y326390D01*
X328255Y338415D02*
X360858D01*
X298450Y308610D02*
X328255Y338415D01*
X155987Y296133D02*
X222027D01*
X213360Y334010D02*
X220980Y341630D01*
X242570Y341630D02*
Y383540D01*
X220980Y341630D02*
Y384810D01*
X238760Y402590D01*
X222027Y296133D02*
X234950Y283210D01*
X242570Y341630D02*
X250190Y334010D01*
X591860Y133310D02*
Y137120D01*
X590550Y160020D02*
X596900Y153670D01*
X552450Y257810D02*
X584200Y226060D01*
X566420Y267970D02*
X599440Y234950D01*
X541675Y183535D02*
X542290Y182920D01*
X599440Y208280D02*
X603250Y204470D01*
X584200Y191770D02*
Y226060D01*
X599440Y208280D02*
Y234950D01*
X584200Y191770D02*
X596900Y179070D01*
X92710Y332740D02*
Y337580D01*
X91440Y214630D02*
X112435Y193635D01*
X128270Y207720D02*
X128980Y207010D01*
X135067D01*
X194030Y257530D02*
X194310Y257810D01*
X194030Y283490D02*
X194310Y283210D01*
X140970Y311150D02*
X155987Y296133D01*
X138430Y283770D02*
X138710Y283490D01*
X92710Y257250D02*
X92990Y257530D01*
X519694Y324296D02*
X521410Y322580D01*
X447645Y125625D02*
X448310Y126290D01*
X412190Y257810D02*
Y259584D01*
X462840Y281940D02*
X464556Y280224D01*
X642231Y153670D02*
X643890Y152011D01*
X552450Y257810D02*
Y322580D01*
X566420Y267970D02*
Y321310D01*
X194085Y156435D02*
X194310Y156210D01*
X225425Y192405D02*
X228600D01*
X207565D02*
X225425D01*
X206335Y193635D02*
X207565Y192405D01*
X485140Y402590D02*
X566420Y321310D01*
X238760Y402590D02*
X485140D01*
X252055Y393025D02*
X482005D01*
X552450Y322580D01*
X112435Y193635D02*
X206335D01*
X300990Y88900D02*
X303570Y91480D01*
D14*
X464556Y269504D02*
X472400Y261660D01*
Y240030D02*
Y261660D01*
Y238513D02*
Y240030D01*
X518200Y267300D02*
X532840Y281940D01*
X518200Y240030D02*
Y267300D01*
X464556Y269504D02*
Y280224D01*
X427990Y210820D02*
X453937Y236767D01*
X470654D01*
X472400Y238513D01*
X413460Y210820D02*
X427990D01*
X437269Y322580D02*
X451410D01*
X434340Y281734D02*
Y322580D01*
X412190Y259584D02*
X434340Y281734D01*
X521410Y293370D02*
X532840Y281940D01*
X567690Y160020D02*
X590550D01*
X542290D02*
X567690D01*
X482040Y338380D02*
Y359410D01*
Y338380D02*
X496124Y324296D01*
X521410Y293370D02*
Y322580D01*
X496124Y324296D02*
X519694D01*
D15*
X542290Y137120D02*
X591860D01*
X167865Y156435D02*
X168400Y155900D01*
X167640Y156660D02*
X167865Y156435D01*
X127510Y138480D02*
X128270Y137720D01*
X123184Y138480D02*
X127510D01*
X124503Y136760D02*
X124703Y136960D01*
X95250Y136760D02*
X124503D01*
X128270Y137720D02*
Y167640D01*
X240030Y207010D02*
X273710D01*
X234950Y283210D02*
X273710D01*
X77580Y202380D02*
X92710Y187250D01*
X58420Y202380D02*
X77580D01*
X155180Y91200D02*
Y105410D01*
X167865Y181385D02*
X194085D01*
X167640Y181160D02*
X167865Y181385D01*
X128270Y167640D02*
X141790Y181160D01*
X167640D01*
X219567Y156210D02*
X225425Y162068D01*
X194310Y156210D02*
X219567D01*
X167865Y156435D02*
X194085D01*
X170180Y105410D02*
Y149236D01*
X168400Y151016D02*
X170180Y149236D01*
X168400Y151016D02*
Y155900D01*
X225425Y192405D02*
X240030Y207010D01*
X225425Y162068D02*
Y192405D01*
X194085Y181385D02*
X194310Y181610D01*
X643890Y86360D02*
Y152011D01*
X621030Y153670D02*
X642231D01*
X155180Y91200D02*
X162560Y83820D01*
X170180Y105410D02*
X252730D01*
X162560Y83820D02*
X189230D01*
D16*
X21776Y299906D02*
Y365946D01*
X69850Y414020D02*
X490220D01*
X21776Y365946D02*
X69850Y414020D01*
X21404Y219896D02*
X26670Y214630D01*
X596900Y262890D02*
X621030D01*
X580390Y279400D02*
X596900Y262890D01*
X580390Y279400D02*
Y323850D01*
X490220Y414020D02*
X580390Y323850D01*
X108770Y226880D02*
X114300Y232410D01*
X58420Y226880D02*
X108770D01*
X114300Y232410D02*
X194310D01*
D17*
X21776Y251646D02*
Y299906D01*
X21404Y219896D02*
Y251274D01*
X21776Y251646D01*
D18*
X638426Y287416D02*
Y297413D01*
X633427D01*
X631761Y295747D01*
Y292414D01*
X633427Y290748D01*
X638426D01*
X628429Y287416D02*
Y294081D01*
X625097Y297413D01*
X621764Y294081D01*
Y287416D01*
Y292414D01*
X628429D01*
X618432Y285750D02*
X611768D01*
X601771Y295747D02*
X603437Y297413D01*
X606769D01*
X608436Y295747D01*
Y289082D01*
X606769Y287416D01*
X603437D01*
X601771Y289082D01*
Y292414D01*
X605103D01*
X638426Y310276D02*
Y320273D01*
X633427D01*
X631761Y318607D01*
Y315275D01*
X633427Y313608D01*
X638426D01*
X628429Y320273D02*
Y310276D01*
X623431D01*
X621764Y311942D01*
Y313608D01*
X623431Y315275D01*
X628429D01*
X623431D01*
X621764Y316941D01*
Y318607D01*
X623431Y320273D01*
X628429D01*
X618432Y308610D02*
X611768D01*
X601771Y318607D02*
X603437Y320273D01*
X606769D01*
X608436Y318607D01*
Y311942D01*
X606769Y310276D01*
X603437D01*
X601771Y311942D01*
Y315275D01*
X605103D01*
X638426Y400050D02*
X635093D01*
X636760D01*
Y410047D01*
X638426Y408381D01*
X623431Y400050D02*
X630095D01*
X623431Y406715D01*
Y408381D01*
X625097Y410047D01*
X628429D01*
X630095Y408381D01*
X620098Y410047D02*
Y403382D01*
X616766Y400050D01*
X613434Y403382D01*
Y410047D01*
X638426Y387187D02*
Y380522D01*
X635093Y377190D01*
X631761Y380522D01*
Y387187D01*
X628429Y375524D02*
X621764D01*
X611768Y387187D02*
X618432D01*
Y382188D01*
X615100D01*
X618432D01*
Y377190D01*
X608436Y387187D02*
Y377190D01*
X603437D01*
X601771Y378856D01*
Y380522D01*
X603437Y382188D01*
X608436D01*
X603437D01*
X601771Y383854D01*
Y385521D01*
X603437Y387187D01*
X608436D01*
X638426Y364327D02*
X635093D01*
X636760D01*
Y354330D01*
X638426D01*
X635093D01*
X630095Y352664D02*
X623431D01*
X613434Y362661D02*
X615100Y364327D01*
X618432D01*
X620098Y362661D01*
Y360994D01*
X618432Y359328D01*
X615100D01*
X613434Y357662D01*
Y355996D01*
X615100Y354330D01*
X618432D01*
X620098Y355996D01*
X603437Y364327D02*
X610102D01*
Y354330D01*
X603437D01*
X610102Y359328D02*
X606769D01*
X600105Y354330D02*
Y364327D01*
X593440Y354330D01*
Y364327D01*
X583443Y362661D02*
X585110Y364327D01*
X588442D01*
X590108Y362661D01*
Y360994D01*
X588442Y359328D01*
X585110D01*
X583443Y357662D01*
Y355996D01*
X585110Y354330D01*
X588442D01*
X590108Y355996D01*
X573447Y364327D02*
X580111D01*
Y354330D01*
X573447D01*
X580111Y359328D02*
X576779D01*
X129570Y33013D02*
X139727D01*
Y17778D01*
X129570D01*
X139727Y25396D02*
X134649D01*
X114335Y33013D02*
X124492D01*
Y17778D01*
X114335D01*
X124492Y25396D02*
X119414D01*
X99100Y33013D02*
X109257D01*
Y17778D01*
X99100D01*
X109257Y25396D02*
X104179D01*
X91483Y15239D02*
X88944Y17778D01*
Y20317D01*
X91483D01*
Y17778D01*
X88944D01*
X91483Y15239D01*
X94022Y12700D01*
X53395Y33013D02*
X58473D01*
X55934D01*
Y20317D01*
X58473Y17778D01*
X61013D01*
X63552Y20317D01*
X48317Y33013D02*
Y20317D01*
X45778Y17778D01*
X40699D01*
X38160Y20317D01*
Y33013D01*
X22925Y30474D02*
X25464Y33013D01*
X30542D01*
X33082Y30474D01*
Y27935D01*
X30542Y25396D01*
X25464D01*
X22925Y22857D01*
Y20317D01*
X25464Y17778D01*
X30542D01*
X33082Y20317D01*
X17846Y33013D02*
X7690D01*
X12768D01*
Y17778D01*
X78787Y86355D02*
X68630D01*
X73709D01*
Y71120D01*
X63552Y86355D02*
Y71120D01*
X53395D01*
X40699D02*
Y86355D01*
X48317Y78738D01*
X38160D01*
X33082Y73659D02*
X30542Y71120D01*
X25464D01*
X22925Y73659D01*
Y83816D01*
X25464Y86355D01*
X30542D01*
X33082Y83816D01*
Y81277D01*
X30542Y78738D01*
X22925D01*
X10229Y71120D02*
Y86355D01*
X17846Y78738D01*
X7690D01*
X213363Y59684D02*
X215903Y62223D01*
X220981D01*
X223520Y59684D01*
Y49528D01*
X220981Y46988D01*
X215903D01*
X213363Y49528D01*
X205746Y46988D02*
X200667D01*
X198128Y49528D01*
Y54606D01*
X200667Y57145D01*
X205746D01*
X208285Y54606D01*
Y49528D01*
X205746Y46988D01*
X193050D02*
Y57145D01*
X185432D01*
X182893Y54606D01*
Y46988D01*
X175276Y59684D02*
Y57145D01*
X177815D01*
X172736D01*
X175276D01*
Y49528D01*
X172736Y46988D01*
X165119Y57145D02*
Y46988D01*
Y52067D01*
X162580Y54606D01*
X160040Y57145D01*
X157501D01*
X147345Y46988D02*
X142266D01*
X139727Y49528D01*
Y54606D01*
X142266Y57145D01*
X147345D01*
X149884Y54606D01*
Y49528D01*
X147345Y46988D01*
X134649D02*
X129570D01*
X132110D01*
Y62223D01*
X134649D01*
X121953Y46988D02*
X116875D01*
X119414D01*
Y62223D01*
X121953D01*
X106718Y57145D02*
X101639D01*
X99100Y54606D01*
Y46988D01*
X106718D01*
X109257Y49528D01*
X106718Y52067D01*
X99100D01*
X94022Y57145D02*
Y46988D01*
Y52067D01*
X91483Y54606D01*
X88944Y57145D01*
X86404D01*
X53395Y59684D02*
X55934Y62223D01*
X61013D01*
X63552Y59684D01*
Y49528D01*
X61013Y46988D01*
X55934D01*
X53395Y49528D01*
X45778Y57145D02*
X40699D01*
X38160Y54606D01*
Y46988D01*
X45778D01*
X48317Y49528D01*
X45778Y52067D01*
X38160D01*
X33082Y57145D02*
Y46988D01*
Y52067D01*
X30542Y54606D01*
X28003Y57145D01*
X25464D01*
X7690Y62223D02*
Y46988D01*
X15307D01*
X17846Y49528D01*
Y54606D01*
X15307Y57145D01*
X7690D01*
X631761Y341467D02*
X633427Y343133D01*
X636760D01*
X638426Y341467D01*
Y334802D01*
X636760Y333136D01*
X633427D01*
X631761Y334802D01*
Y338134D01*
X635093D01*
X628429Y333136D02*
Y343133D01*
X621764Y333136D01*
Y343133D01*
X618432D02*
Y333136D01*
X613434D01*
X611768Y334802D01*
Y341467D01*
X613434Y343133D01*
X618432D01*
D19*
X492760Y81360D02*
D03*
X542290Y81400D02*
D03*
X492760Y137080D02*
D03*
X378460Y45680D02*
D03*
X541020Y137080D02*
D03*
D20*
X492760Y58460D02*
D03*
Y35560D02*
D03*
X542290Y35600D02*
D03*
Y58500D02*
D03*
X492760Y159980D02*
D03*
Y182880D02*
D03*
X378460Y91480D02*
D03*
Y68580D02*
D03*
X541020Y182880D02*
D03*
Y159980D02*
D03*
D21*
X518200Y240030D02*
D03*
D22*
X495300D02*
D03*
X472400D02*
D03*
D23*
X621030Y229870D02*
D03*
D24*
Y204470D02*
D03*
Y179070D02*
D03*
Y153670D02*
D03*
Y128270D02*
D03*
Y102870D02*
D03*
D25*
X167640Y156660D02*
D03*
Y181160D02*
D03*
X58420Y202380D02*
D03*
Y226880D02*
D03*
X21590Y181460D02*
D03*
Y251460D02*
D03*
X238050Y123190D02*
D03*
X308050D02*
D03*
X194310Y308610D02*
D03*
Y283210D02*
D03*
Y257810D02*
D03*
Y232410D02*
D03*
Y207010D02*
D03*
Y181610D02*
D03*
Y156210D02*
D03*
X273710D02*
D03*
Y181610D02*
D03*
Y207010D02*
D03*
Y232410D02*
D03*
Y257810D02*
D03*
Y283210D02*
D03*
Y308610D02*
D03*
Y334010D02*
D03*
X128270Y207720D02*
D03*
Y137720D02*
D03*
X92710Y257250D02*
D03*
Y187250D02*
D03*
X201220Y378460D02*
D03*
X271220D02*
D03*
X138430Y283770D02*
D03*
Y353770D02*
D03*
X92710Y362660D02*
D03*
Y292660D02*
D03*
X433070Y27230D02*
D03*
Y97230D02*
D03*
X448310Y196290D02*
D03*
Y126290D02*
D03*
X412040Y359410D02*
D03*
X482040D02*
D03*
X342190Y326390D02*
D03*
X412190D02*
D03*
X342190Y257810D02*
D03*
X412190D02*
D03*
X343460Y210820D02*
D03*
X413460D02*
D03*
X212650Y88900D02*
D03*
X282650D02*
D03*
X532840Y281940D02*
D03*
X462840D02*
D03*
X451410Y322580D02*
D03*
X521410D02*
D03*
D26*
X46990Y157080D02*
D03*
D27*
Y107080D02*
D03*
D28*
X170180Y105410D02*
D03*
D29*
X155180D02*
D03*
D30*
X194310Y334010D02*
D03*
D31*
X48260Y337580D02*
D03*
D32*
Y322580D02*
D03*
M02*
