G04*
G04 #@! TF.GenerationSoftware,Altium Limited,Altium Designer,23.1.1 (15)*
G04*
G04 Layer_Physical_Order=2*
G04 Layer_Color=16711680*
%FSLAX44Y44*%
%MOMM*%
G71*
G04*
G04 #@! TF.SameCoordinates,68198025-1F79-426E-A44B-EFEC00C58351*
G04*
G04*
G04 #@! TF.FilePolarity,Positive*
G04*
G01*
G75*
%ADD10C,0.2540*%
%ADD29C,1.8000*%
%ADD30R,1.8000X1.8000*%
%ADD31C,1.3970*%
%ADD32R,1.8000X1.8000*%
%ADD33C,1.7780*%
%ADD34O,3.0000X2.4000*%
G04:AMPARAMS|DCode=35|XSize=2.4mm|YSize=3mm|CornerRadius=0.6mm|HoleSize=0mm|Usage=FLASHONLY|Rotation=270.000|XOffset=0mm|YOffset=0mm|HoleType=Round|Shape=RoundedRectangle|*
%AMROUNDEDRECTD35*
21,1,2.4000,1.8000,0,0,270.0*
21,1,1.2000,3.0000,0,0,270.0*
1,1,1.2000,-0.9000,-0.6000*
1,1,1.2000,-0.9000,0.6000*
1,1,1.2000,0.9000,0.6000*
1,1,1.2000,0.9000,-0.6000*
%
%ADD35ROUNDEDRECTD35*%
G04:AMPARAMS|DCode=36|XSize=1.1mm|YSize=2.032mm|CornerRadius=0.11mm|HoleSize=0mm|Usage=FLASHONLY|Rotation=180.000|XOffset=0mm|YOffset=0mm|HoleType=Round|Shape=RoundedRectangle|*
%AMROUNDEDRECTD36*
21,1,1.1000,1.8120,0,0,180.0*
21,1,0.8800,2.0320,0,0,180.0*
1,1,0.2200,-0.4400,0.9060*
1,1,0.2200,0.4400,0.9060*
1,1,0.2200,0.4400,-0.9060*
1,1,0.2200,-0.4400,-0.9060*
%
%ADD36ROUNDEDRECTD36*%
%ADD37O,1.1000X2.0320*%
%ADD38R,1.3970X1.3970*%
G04:AMPARAMS|DCode=39|XSize=1.1mm|YSize=2.032mm|CornerRadius=0.11mm|HoleSize=0mm|Usage=FLASHONLY|Rotation=270.000|XOffset=0mm|YOffset=0mm|HoleType=Round|Shape=RoundedRectangle|*
%AMROUNDEDRECTD39*
21,1,1.1000,1.8120,0,0,270.0*
21,1,0.8800,2.0320,0,0,270.0*
1,1,0.2200,-0.9060,-0.4400*
1,1,0.2200,-0.9060,0.4400*
1,1,0.2200,0.9060,0.4400*
1,1,0.2200,0.9060,-0.4400*
%
%ADD39ROUNDEDRECTD39*%
%ADD40O,2.0320X1.1000*%
%ADD41C,0.5000*%
%ADD42C,1.2000*%
%ADD43C,1.3000*%
%ADD44C,0.8000*%
%ADD45C,1.0000*%
%ADD46C,1.5000*%
%ADD47C,1.4000*%
G36*
X282650Y368300D02*
X259790D01*
Y387350D01*
X282650D01*
Y368300D01*
D02*
G37*
G36*
X212650D02*
X189790D01*
Y388620D01*
X212650D01*
Y368300D01*
D02*
G37*
G36*
X104140Y351230D02*
X81280D01*
Y374090D01*
X104140D01*
Y351230D01*
D02*
G37*
G36*
X149860Y342340D02*
X127000D01*
Y365200D01*
X149860D01*
Y342340D01*
D02*
G37*
G36*
X285140Y325120D02*
X255270D01*
Y342900D01*
X285140D01*
Y325120D01*
D02*
G37*
G36*
X213360D02*
X182880D01*
Y342900D01*
X213360D01*
Y325120D01*
D02*
G37*
G36*
X423620Y347830D02*
Y337820D01*
Y314960D01*
X400050D01*
X367030Y347980D01*
X322580D01*
X308610Y334010D01*
Y313690D01*
X295910Y300990D01*
X262280D01*
Y316230D01*
X285140D01*
X292100Y316230D01*
X295910Y320040D01*
Y344170D01*
X320040Y368300D01*
X400760D01*
Y370690D01*
X423620D01*
Y347830D01*
D02*
G37*
G36*
X353620Y314960D02*
X330760D01*
Y337820D01*
X353620D01*
Y314960D01*
D02*
G37*
G36*
X205740Y301272D02*
X182880D01*
Y316230D01*
X205740D01*
Y301272D01*
D02*
G37*
G36*
X104140Y281230D02*
X81280D01*
Y304090D01*
X104140D01*
Y281230D01*
D02*
G37*
G36*
X206774Y274320D02*
X183914D01*
Y290830D01*
X206774D01*
Y274320D01*
D02*
G37*
G36*
X147320Y272934D02*
X126032D01*
Y293370D01*
X147320D01*
Y272934D01*
D02*
G37*
G36*
X285140Y271780D02*
X262280D01*
Y290830D01*
X285140D01*
Y271780D01*
D02*
G37*
G36*
Y250190D02*
X262280D01*
Y269240D01*
X285140D01*
Y250190D01*
D02*
G37*
G36*
X459740Y311150D02*
Y298450D01*
X408940Y248920D01*
X370840D01*
Y266700D01*
X400760D01*
X439980Y306754D01*
X439980Y334010D01*
X459740D01*
Y311150D01*
D02*
G37*
G36*
X330760Y248920D02*
X307900D01*
Y266700D01*
X330760D01*
Y248920D01*
D02*
G37*
G36*
X205740D02*
X182880D01*
Y266700D01*
X205740D01*
Y248920D01*
D02*
G37*
G36*
X104980Y246100D02*
X82120D01*
Y268960D01*
X104980D01*
Y246100D01*
D02*
G37*
G36*
X205740Y224790D02*
X182880D01*
Y240030D01*
X205740D01*
Y224790D01*
D02*
G37*
G36*
X69850Y222250D02*
X46990D01*
Y238310D01*
X69850D01*
Y222250D01*
D02*
G37*
G36*
X640080Y252730D02*
Y220980D01*
X604520D01*
Y243840D01*
X595630Y252730D01*
X595630Y269240D01*
X623570D01*
X640080Y252730D01*
D02*
G37*
G36*
X252730Y410210D02*
X219710D01*
X204470Y394970D01*
X77470D01*
X33020Y350520D01*
X33020Y307340D01*
X33020Y207010D01*
X7620D01*
Y398780D01*
X26670Y417830D01*
X252730D01*
Y410210D01*
D02*
G37*
G36*
X400760Y213360D02*
X506730D01*
Y199390D01*
X377900D01*
Y217170D01*
X400760D01*
Y213360D01*
D02*
G37*
G36*
X330760Y199390D02*
X307900D01*
Y217170D01*
X330760D01*
Y199390D01*
D02*
G37*
G36*
X205740D02*
X182880D01*
Y214630D01*
X205740D01*
Y199390D01*
D02*
G37*
G36*
X139700Y198774D02*
X116840D01*
Y219150D01*
X139700D01*
Y198774D01*
D02*
G37*
G36*
X632460Y195580D02*
X609600D01*
Y213360D01*
X632460D01*
Y195580D01*
D02*
G37*
G36*
X69850Y195923D02*
X68580Y195246D01*
X68301Y195433D01*
X67310Y195630D01*
X60364D01*
X60032Y195564D01*
X59694Y195541D01*
X59333Y195445D01*
X57507D01*
X57146Y195541D01*
X56808Y195564D01*
X56476Y195630D01*
X46990D01*
Y208280D01*
X69850D01*
Y195923D01*
D02*
G37*
G36*
X285140Y173990D02*
X262280D01*
Y189230D01*
X285140D01*
Y173990D01*
D02*
G37*
G36*
X533400Y325120D02*
Y229870D01*
X599440Y163830D01*
X648970D01*
X654050Y158750D01*
Y36830D01*
X633730Y16510D01*
X285750D01*
X232410Y69850D01*
X115570D01*
X93980Y91440D01*
X8890D01*
Y119380D01*
X93980D01*
Y149860D01*
X132080Y187960D01*
X182768D01*
Y188496D01*
X205627D01*
Y172720D01*
X182768D01*
Y173990D01*
X158750D01*
X142215Y157455D01*
X142215Y133375D01*
X160020Y115570D01*
X160020Y90170D01*
X165100Y85090D01*
X276860D01*
X295910Y66040D01*
X466090Y66040D01*
X480060Y80010D01*
X480060Y109220D01*
X511810D01*
Y81280D01*
X526415Y66040D01*
X619760D01*
X637540Y83820D01*
Y138430D01*
X632460Y143510D01*
X593090D01*
X514350Y222250D01*
X482600Y222250D01*
Y327660D01*
X464820Y345440D01*
Y369570D01*
X488950D01*
X533400Y325120D01*
D02*
G37*
G36*
X632460Y170180D02*
X609600D01*
Y187960D01*
X632460D01*
Y170180D01*
D02*
G37*
G36*
X330760Y151130D02*
X307900D01*
Y173990D01*
X330760D01*
Y151130D01*
D02*
G37*
G36*
X285140Y148590D02*
X262280D01*
Y163830D01*
X285140D01*
Y148590D01*
D02*
G37*
G36*
X66040Y189230D02*
X73660Y181610D01*
X73660Y144780D01*
X8890D01*
Y182880D01*
X15240Y189230D01*
X66040Y189230D01*
D02*
G37*
G36*
X581660Y133350D02*
X629920D01*
Y121920D01*
X579120D01*
X525780Y175260D01*
X436880D01*
Y184150D01*
X530860Y184150D01*
X581660Y133350D01*
D02*
G37*
G36*
X400760Y151690D02*
X417830Y134620D01*
X501650D01*
Y119380D01*
X420370D01*
X388620Y151130D01*
X377900D01*
Y173990D01*
X400760D01*
Y151690D01*
D02*
G37*
G36*
X574040Y107950D02*
X629920D01*
Y96520D01*
X570230D01*
X519430Y147320D01*
X436880D01*
Y158750D01*
X523240D01*
X574040Y107950D01*
D02*
G37*
G36*
X457200Y226060D02*
X281940D01*
Y199390D01*
X245110D01*
X232410Y186690D01*
Y123190D01*
X240030Y115570D01*
X337820D01*
X345440Y107950D01*
X454660Y107950D01*
Y91440D01*
X339090D01*
X331470Y99060D01*
X166370D01*
Y143510D01*
X160020Y149860D01*
X160020Y162560D01*
X218440D01*
X218440Y196850D01*
X233680Y212090D01*
X262890D01*
Y240030D01*
X457200D01*
Y226060D01*
D02*
G37*
D10*
X638426Y287416D02*
Y297413D01*
X633427D01*
X631761Y295747D01*
Y292414D01*
X633427Y290748D01*
X638426D01*
X628429Y287416D02*
Y294081D01*
X625097Y297413D01*
X621764Y294081D01*
Y287416D01*
Y292414D01*
X628429D01*
X618432Y285750D02*
X611768D01*
X601771Y295747D02*
X603437Y297413D01*
X606769D01*
X608436Y295747D01*
Y289082D01*
X606769Y287416D01*
X603437D01*
X601771Y289082D01*
Y292414D01*
X605103D01*
X638426Y310276D02*
Y320273D01*
X633427D01*
X631761Y318607D01*
Y315275D01*
X633427Y313608D01*
X638426D01*
X628429Y320273D02*
Y310276D01*
X623431D01*
X621764Y311942D01*
Y313608D01*
X623431Y315275D01*
X628429D01*
X623431D01*
X621764Y316941D01*
Y318607D01*
X623431Y320273D01*
X628429D01*
X618432Y308610D02*
X611768D01*
X601771Y318607D02*
X603437Y320273D01*
X606769D01*
X608436Y318607D01*
Y311942D01*
X606769Y310276D01*
X603437D01*
X601771Y311942D01*
Y315275D01*
X605103D01*
X638426Y400050D02*
X635093D01*
X636760D01*
Y410047D01*
X638426Y408381D01*
X623431Y400050D02*
X630095D01*
X623431Y406715D01*
Y408381D01*
X625097Y410047D01*
X628429D01*
X630095Y408381D01*
X620098Y410047D02*
Y403382D01*
X616766Y400050D01*
X613434Y403382D01*
Y410047D01*
X638426Y387187D02*
Y380522D01*
X635093Y377190D01*
X631761Y380522D01*
Y387187D01*
X628429Y375524D02*
X621764D01*
X611768Y387187D02*
X618432D01*
Y382188D01*
X615100D01*
X618432D01*
Y377190D01*
X608436Y387187D02*
Y377190D01*
X603437D01*
X601771Y378856D01*
Y380522D01*
X603437Y382188D01*
X608436D01*
X603437D01*
X601771Y383854D01*
Y385521D01*
X603437Y387187D01*
X608436D01*
X638426Y364327D02*
X635093D01*
X636760D01*
Y354330D01*
X638426D01*
X635093D01*
X630095Y352664D02*
X623431D01*
X613434Y362661D02*
X615100Y364327D01*
X618432D01*
X620098Y362661D01*
Y360994D01*
X618432Y359328D01*
X615100D01*
X613434Y357662D01*
Y355996D01*
X615100Y354330D01*
X618432D01*
X620098Y355996D01*
X603437Y364327D02*
X610102D01*
Y354330D01*
X603437D01*
X610102Y359328D02*
X606769D01*
X600105Y354330D02*
Y364327D01*
X593440Y354330D01*
Y364327D01*
X583443Y362661D02*
X585110Y364327D01*
X588442D01*
X590108Y362661D01*
Y360994D01*
X588442Y359328D01*
X585110D01*
X583443Y357662D01*
Y355996D01*
X585110Y354330D01*
X588442D01*
X590108Y355996D01*
X573447Y364327D02*
X580111D01*
Y354330D01*
X573447D01*
X580111Y359328D02*
X576779D01*
X129570Y33013D02*
X139727D01*
Y17778D01*
X129570D01*
X139727Y25396D02*
X134649D01*
X114335Y33013D02*
X124492D01*
Y17778D01*
X114335D01*
X124492Y25396D02*
X119414D01*
X99100Y33013D02*
X109257D01*
Y17778D01*
X99100D01*
X109257Y25396D02*
X104179D01*
X91483Y15239D02*
X88944Y17778D01*
Y20317D01*
X91483D01*
Y17778D01*
X88944D01*
X91483Y15239D01*
X94022Y12700D01*
X53395Y33013D02*
X58473D01*
X55934D01*
Y20317D01*
X58473Y17778D01*
X61013D01*
X63552Y20317D01*
X48317Y33013D02*
Y20317D01*
X45778Y17778D01*
X40699D01*
X38160Y20317D01*
Y33013D01*
X22925Y30474D02*
X25464Y33013D01*
X30542D01*
X33082Y30474D01*
Y27935D01*
X30542Y25396D01*
X25464D01*
X22925Y22857D01*
Y20317D01*
X25464Y17778D01*
X30542D01*
X33082Y20317D01*
X17846Y33013D02*
X7690D01*
X12768D01*
Y17778D01*
X78787Y86355D02*
X68630D01*
X73709D01*
Y71120D01*
X63552Y86355D02*
Y71120D01*
X53395D01*
X40699D02*
Y86355D01*
X48317Y78738D01*
X38160D01*
X33082Y73659D02*
X30542Y71120D01*
X25464D01*
X22925Y73659D01*
Y83816D01*
X25464Y86355D01*
X30542D01*
X33082Y83816D01*
Y81277D01*
X30542Y78738D01*
X22925D01*
X10229Y71120D02*
Y86355D01*
X17846Y78738D01*
X7690D01*
X213363Y59684D02*
X215903Y62223D01*
X220981D01*
X223520Y59684D01*
Y49528D01*
X220981Y46988D01*
X215903D01*
X213363Y49528D01*
X205746Y46988D02*
X200667D01*
X198128Y49528D01*
Y54606D01*
X200667Y57145D01*
X205746D01*
X208285Y54606D01*
Y49528D01*
X205746Y46988D01*
X193050D02*
Y57145D01*
X185432D01*
X182893Y54606D01*
Y46988D01*
X175276Y59684D02*
Y57145D01*
X177815D01*
X172736D01*
X175276D01*
Y49528D01*
X172736Y46988D01*
X165119Y57145D02*
Y46988D01*
Y52067D01*
X162580Y54606D01*
X160040Y57145D01*
X157501D01*
X147345Y46988D02*
X142266D01*
X139727Y49528D01*
Y54606D01*
X142266Y57145D01*
X147345D01*
X149884Y54606D01*
Y49528D01*
X147345Y46988D01*
X134649D02*
X129570D01*
X132110D01*
Y62223D01*
X134649D01*
X121953Y46988D02*
X116875D01*
X119414D01*
Y62223D01*
X121953D01*
X106718Y57145D02*
X101639D01*
X99100Y54606D01*
Y46988D01*
X106718D01*
X109257Y49528D01*
X106718Y52067D01*
X99100D01*
X94022Y57145D02*
Y46988D01*
Y52067D01*
X91483Y54606D01*
X88944Y57145D01*
X86404D01*
X53395Y59684D02*
X55934Y62223D01*
X61013D01*
X63552Y59684D01*
Y49528D01*
X61013Y46988D01*
X55934D01*
X53395Y49528D01*
X45778Y57145D02*
X40699D01*
X38160Y54606D01*
Y46988D01*
X45778D01*
X48317Y49528D01*
X45778Y52067D01*
X38160D01*
X33082Y57145D02*
Y46988D01*
Y52067D01*
X30542Y54606D01*
X28003Y57145D01*
X25464D01*
X7690Y62223D02*
Y46988D01*
X15307D01*
X17846Y49528D01*
Y54606D01*
X15307Y57145D01*
X7690D01*
X631761Y341467D02*
X633427Y343133D01*
X636760D01*
X638426Y341467D01*
Y334802D01*
X636760Y333136D01*
X633427D01*
X631761Y334802D01*
Y338134D01*
X635093D01*
X628429Y333136D02*
Y343133D01*
X621764Y333136D01*
Y343133D01*
X618432D02*
Y333136D01*
X613434D01*
X611768Y334802D01*
Y341467D01*
X613434Y343133D01*
X618432D01*
D29*
X497350Y206180D02*
D03*
Y233180D02*
D03*
X496570Y127330D02*
D03*
Y100330D02*
D03*
X446550Y206180D02*
D03*
Y233180D02*
D03*
X445770Y127330D02*
D03*
Y100330D02*
D03*
D30*
X497350Y179180D02*
D03*
X496570Y154330D02*
D03*
X446550Y179180D02*
D03*
X445770Y154330D02*
D03*
D31*
X319330Y162560D02*
D03*
X389330D02*
D03*
X389330Y208280D02*
D03*
X319330D02*
D03*
X167640Y156660D02*
D03*
Y181160D02*
D03*
X58420Y202380D02*
D03*
Y226880D02*
D03*
X21590Y181460D02*
D03*
Y251460D02*
D03*
X194310Y308610D02*
D03*
Y283210D02*
D03*
Y257810D02*
D03*
Y232410D02*
D03*
Y207010D02*
D03*
Y181610D02*
D03*
Y156210D02*
D03*
X273710D02*
D03*
Y181610D02*
D03*
Y207010D02*
D03*
Y232410D02*
D03*
Y257810D02*
D03*
Y283210D02*
D03*
Y308610D02*
D03*
Y334010D02*
D03*
X128270Y207720D02*
D03*
Y137720D02*
D03*
X92710Y257250D02*
D03*
Y187250D02*
D03*
X201220Y378460D02*
D03*
X271220D02*
D03*
X138430Y283770D02*
D03*
Y353770D02*
D03*
X92710Y362660D02*
D03*
Y292660D02*
D03*
X412040Y359410D02*
D03*
X482040D02*
D03*
X342190Y326390D02*
D03*
X412190D02*
D03*
X319330Y257810D02*
D03*
X389330D02*
D03*
X451410Y322580D02*
D03*
X521410D02*
D03*
D32*
X621030Y229870D02*
D03*
D33*
Y204470D02*
D03*
Y179070D02*
D03*
Y153670D02*
D03*
Y128270D02*
D03*
Y102870D02*
D03*
D34*
X46990Y157080D02*
D03*
D35*
Y107080D02*
D03*
D36*
X170180Y105410D02*
D03*
D37*
X155180D02*
D03*
D38*
X194310Y334010D02*
D03*
D39*
X48260Y337580D02*
D03*
D40*
Y322580D02*
D03*
D41*
X140970Y311150D02*
X155987Y296133D01*
X222027D01*
X491990Y152400D02*
X520700D01*
X600710Y204470D02*
X621030D01*
X593090Y212090D02*
Y236220D01*
Y212090D02*
X600710Y204470D01*
X579120D02*
X604520Y179070D01*
X579120Y204470D02*
Y224790D01*
X552450Y251460D02*
X579120Y224790D01*
X552450Y251460D02*
Y322580D01*
X566420Y262890D02*
X593090Y236220D01*
X566420Y262890D02*
Y321310D01*
X604520Y179070D02*
X621030D01*
X273710Y156210D02*
X293370D01*
X299720Y162560D02*
X319330D01*
X293370Y156210D02*
X299720Y162560D01*
X313210Y204588D02*
X316903Y208280D01*
X289560Y181610D02*
X312538Y204588D01*
X273710Y181610D02*
X289560D01*
X316903Y208280D02*
X319330D01*
X312538Y204588D02*
X313210D01*
X390699Y207109D02*
X445621D01*
X446550Y206180D01*
X389429Y208379D02*
X390699Y207109D01*
X419100Y125730D02*
X440700D01*
X392430Y152400D02*
Y157033D01*
Y152400D02*
X419100Y125730D01*
X389330Y160133D02*
X392430Y157033D01*
X389330Y160133D02*
Y162560D01*
X440700Y125730D02*
X491500D01*
X129835Y207720D02*
X130677Y206877D01*
X128270Y207720D02*
X129835D01*
X90170Y214630D02*
X111165Y193635D01*
X224195D01*
X225425Y192405D01*
X27940Y214630D02*
X90170D01*
X225425Y192405D02*
X230505D01*
X245110Y207010D02*
X273710D01*
X230505Y192405D02*
X245110Y207010D01*
X194310Y156210D02*
X219567D01*
X167865Y156435D02*
X168910Y155390D01*
X167865Y156435D02*
X194085D01*
X167640Y156660D02*
X167865Y156435D01*
X194085D02*
X194310Y156210D01*
X168910Y106680D02*
Y155390D01*
Y106680D02*
X170180Y105410D01*
X338590Y99560D02*
X441190D01*
X170180Y105410D02*
X332740D01*
X338590Y99560D01*
X273710Y232410D02*
X274095Y232795D01*
X446165D01*
X446550Y233180D01*
X273710Y207010D02*
Y232410D01*
X576580Y129540D02*
X619760D01*
X621030Y128270D01*
X497350Y179180D02*
X526940D01*
X576580Y129540D01*
X446550Y179180D02*
X497350D01*
X521410Y220270D02*
Y224790D01*
X498444D02*
X521410D01*
Y322580D01*
X491500Y46980D02*
Y99560D01*
X441190Y153560D02*
X443620Y151130D01*
X489560D02*
X491990Y153560D01*
X443620Y151130D02*
X489560D01*
X520700Y152400D02*
X570230Y102870D01*
X427990Y378460D02*
X443230Y363220D01*
Y325844D02*
Y363220D01*
X222027Y296133D02*
X234950Y283210D01*
X273710D01*
X242570Y341630D02*
X250190Y334010D01*
X273710D01*
X194310D02*
X213360D01*
X93550Y257530D02*
X194030D01*
X93270Y257810D02*
X93550Y257530D01*
X92710Y257250D02*
X93270Y257810D01*
X194030Y257530D02*
X194310Y257810D01*
X521970Y219710D02*
X529590D01*
X595630Y153670D01*
X621030D01*
X447040Y207010D02*
X497840D01*
X521410Y220270D02*
X521970Y219710D01*
X491500Y46980D02*
X492800Y45680D01*
X570230Y102870D02*
X621030D01*
X297180Y378460D02*
X427990D01*
X242570Y383540D02*
X252055Y393025D01*
X412040Y359410D02*
X412190Y359260D01*
X342190Y326390D02*
X343906Y328106D01*
X213360Y334010D02*
X220980Y341630D01*
X242570Y341630D02*
Y383540D01*
X220980Y341630D02*
Y384810D01*
X238760Y402590D01*
X92710Y332740D02*
Y337580D01*
X194030Y283490D02*
X194310Y283210D01*
X138430Y283770D02*
X138710Y283490D01*
X519694Y324296D02*
X521410Y322580D01*
X642231Y153670D02*
X643890Y152011D01*
X485140Y402590D02*
X566420Y321310D01*
X238760Y402590D02*
X485140D01*
X252055Y393025D02*
X482005D01*
X552450Y322580D01*
D42*
X114300Y311150D02*
X140970D01*
X130677Y206877D02*
X194177D01*
X273710Y257810D02*
Y283210D01*
Y257810D02*
X342190D01*
X271220Y378460D02*
X297180D01*
X128270Y111268D02*
X134128Y105410D01*
X155180D01*
X412190Y326390D02*
Y359260D01*
X342190Y257810D02*
Y326390D01*
X173990Y378460D02*
X201220D01*
X166370Y370840D02*
X173990Y378460D01*
X166370Y353770D02*
Y370840D01*
X173399Y308610D02*
X194310D01*
X166370Y315639D02*
Y353770D01*
X138430D02*
X166370D01*
Y315639D02*
X173399Y308610D01*
X48260Y299720D02*
X55320Y292660D01*
X48260Y299720D02*
Y322580D01*
X55320Y292660D02*
X92710D01*
Y332740D02*
X114300Y311150D01*
X48260Y337580D02*
X92710D01*
Y362660D01*
X138710Y283490D02*
X194030D01*
X92710Y257250D02*
Y292660D01*
D43*
X21404Y251274D02*
X21590Y251460D01*
D44*
X21776Y251646D01*
Y365946D01*
X69850Y414020D01*
X490220D01*
X580390Y323850D01*
Y279400D02*
Y323850D01*
Y279400D02*
X596900Y262890D01*
X599440D01*
X601980Y260350D01*
X108770Y226880D02*
X114300Y232410D01*
X58420Y226880D02*
X108770D01*
X114300Y232410D02*
X194310D01*
D45*
X225425Y162068D02*
Y192405D01*
X219567Y156210D02*
X225425Y162068D01*
X127510Y138480D02*
X128270Y137720D01*
X123184Y138480D02*
X127510D01*
X124503Y136760D02*
X124703Y136960D01*
X95250Y136760D02*
X124503D01*
X77580Y202380D02*
X92710Y187250D01*
X58420Y202380D02*
X77580D01*
X155180Y91200D02*
Y105410D01*
X167865Y181385D02*
X194085D01*
X167640Y181160D02*
X167865Y181385D01*
X194085D02*
X194310Y181610D01*
D46*
X92710Y115867D02*
Y187250D01*
X46990Y107080D02*
X83923D01*
D47*
X482040Y338380D02*
Y359410D01*
Y338380D02*
X496124Y324296D01*
X519694D01*
M02*
